{
    "asset" : {
        "generator" : "Khronos glTF Blender I/O v1.0.5",
        "version" : "2.0"
    },
    "scene" : 0,
    "scenes" : [
        {
            "name" : "Scene",
            "nodes" : [
                0,
                1
            ]
        }
    ],
    "nodes" : [
        {
            "mesh" : 0,
            "name" : "Grid"
        },
        {
            "mesh" : 1,
            "name" : "Grid.001"
        }
    ],
    "meshes" : [
        {
            "name" : "Grid.001",
            "primitives" : [
                {
                    "attributes" : {
                        "POSITION" : 0,
                        "NORMAL" : 1,
                        "TEXCOORD_0" : 2
                    },
                    "indices" : 3
                }
            ]
        },
        {
            "name" : "Grid.003",
            "primitives" : [
                {
                    "attributes" : {
                        "POSITION" : 4,
                        "NORMAL" : 5,
                        "TEXCOORD_0" : 6
                    },
                    "indices" : 7
                }
            ]
        }
    ],
    "accessors" : [
        {
            "bufferView" : 0,
            "componentType" : 5126,
            "count" : 7268,
            "max" : [
                1,
                0.513286828994751,
                7.400000095367432
            ],
            "min" : [
                -1,
                -0.0002848617732524872,
                -7.400000095367432
            ],
            "type" : "VEC3"
        },
        {
            "bufferView" : 1,
            "componentType" : 5126,
            "count" : 7268,
            "type" : "VEC3"
        },
        {
            "bufferView" : 2,
            "componentType" : 5126,
            "count" : 7268,
            "type" : "VEC2"
        },
        {
            "bufferView" : 3,
            "componentType" : 5123,
            "count" : 11400,
            "type" : "SCALAR"
        },
        {
            "bufferView" : 4,
            "componentType" : 5126,
            "count" : 28260,
            "max" : [
                1.0007967948913574,
                0.5143343210220337,
                3.918696880340576
            ],
            "min" : [
                -1.0007967948913574,
                -0.0013348617358133197,
                -2.923739433288574
            ],
            "type" : "VEC3"
        },
        {
            "bufferView" : 5,
            "componentType" : 5126,
            "count" : 28260,
            "type" : "VEC3"
        },
        {
            "bufferView" : 6,
            "componentType" : 5126,
            "count" : 28260,
            "type" : "VEC2"
        },
        {
            "bufferView" : 7,
            "componentType" : 5123,
            "count" : 42528,
            "type" : "SCALAR"
        }
    ],
    "bufferViews" : [
        {
            "buffer" : 0,
            "byteLength" : 87216,
            "byteOffset" : 0
        },
        {
            "buffer" : 0,
            "byteLength" : 87216,
            "byteOffset" : 87216
        },
        {
            "buffer" : 0,
            "byteLength" : 58144,
            "byteOffset" : 174432
        },
        {
            "buffer" : 0,
            "byteLength" : 22800,
            "byteOffset" : 232576
        },
        {
            "buffer" : 0,
            "byteLength" : 339120,
            "byteOffset" : 255376
        },
        {
            "buffer" : 0,
            "byteLength" : 339120,
            "byteOffset" : 594496
        },
        {
            "buffer" : 0,
            "byteLength" : 226080,
            "byteOffset" : 933616
        },
        {
            "buffer" : 0,
            "byteLength" : 85056,
            "byteOffset" : 1159696
        }
    ],
    "buffers" : [
        {
            "byteLength" : 1244752,
            "uri" : "data:application/octet-stream;base64,"
        }
    ]
}
