{
    "asset" : {
        "generator" : "Khronos glTF Blender I/O v1.0.5",
        "version" : "2.0"
    },
    "scene" : 0,
    "scenes" : [
        {
            "name" : "Scene",
            "nodes" : [
                0,
                1
            ]
        }
    ],
    "nodes" : [
        {
            "mesh" : 0,
            "name" : "Grid"
        },
        {
            "mesh" : 1,
            "name" : "Grid.001"
        }
    ],
    "meshes" : [
        {
            "name" : "Grid.001",
            "primitives" : [
                {
                    "attributes" : {
                        "POSITION" : 0,
                        "NORMAL" : 1,
                        "TEXCOORD_0" : 2
                    },
                    "indices" : 3
                }
            ]
        },
        {
            "name" : "Grid.003",
            "primitives" : [
                {
                    "attributes" : {
                        "POSITION" : 4,
                        "NORMAL" : 5,
                        "TEXCOORD_0" : 6
                    },
                    "indices" : 7
                }
            ]
        }
    ],
    "accessors" : [
        {
            "bufferView" : 0,
            "componentType" : 5126,
            "count" : 7272,
            "max" : [
                1,
                0.513286828994751,
                7.400000095367432
            ],
            "min" : [
                -1,
                -0.0002848617732524872,
                -7.400000095367432
            ],
            "type" : "VEC3"
        },
        {
            "bufferView" : 1,
            "componentType" : 5126,
            "count" : 7272,
            "type" : "VEC3"
        },
        {
            "bufferView" : 2,
            "componentType" : 5126,
            "count" : 7272,
            "type" : "VEC2"
        },
        {
            "bufferView" : 3,
            "componentType" : 5123,
            "count" : 11424,
            "type" : "SCALAR"
        },
        {
            "bufferView" : 4,
            "componentType" : 5126,
            "count" : 60740,
            "max" : [
                1.0009428262710571,
                0.5143358111381531,
                7.40086030960083
            ],
            "min" : [
                -1.0009428262710571,
                -0.0013348617358133197,
                -7.400753498077393
            ],
            "type" : "VEC3"
        },
        {
            "bufferView" : 5,
            "componentType" : 5126,
            "count" : 60740,
            "type" : "VEC3"
        },
        {
            "bufferView" : 6,
            "componentType" : 5126,
            "count" : 60740,
            "type" : "VEC2"
        },
        {
            "bufferView" : 7,
            "componentType" : 5123,
            "count" : 91392,
            "type" : "SCALAR"
        }
    ],
    "bufferViews" : [
        {
            "buffer" : 0,
            "byteLength" : 87264,
            "byteOffset" : 0
        },
        {
            "buffer" : 0,
            "byteLength" : 87264,
            "byteOffset" : 87264
        },
        {
            "buffer" : 0,
            "byteLength" : 58176,
            "byteOffset" : 174528
        },
        {
            "buffer" : 0,
            "byteLength" : 22848,
            "byteOffset" : 232704
        },
        {
            "buffer" : 0,
            "byteLength" : 728880,
            "byteOffset" : 255552
        },
        {
            "buffer" : 0,
            "byteLength" : 728880,
            "byteOffset" : 984432
        },
        {
            "buffer" : 0,
            "byteLength" : 485920,
            "byteOffset" : 1713312
        },
        {
            "buffer" : 0,
            "byteLength" : 182784,
            "byteOffset" : 2199232
        }
    ],
    "buffers" : [
        {
            "byteLength" : 2382016,
            "uri" : "data:application/octet-stream;base64,"
        }
    ]
}
