# Blender v2.81 (sub 16) OBJ File: 'Berzerker.blend'
# www.blender.org
mtllib fist_left.mtl
o Fist_Plane.006
v 0.915338 -2.495692 0.200000
v -1.217395 -2.497374 0.200000
v 0.915681 -1.614735 0.200000
v -1.217395 -1.787374 0.200000
v 0.914076 -1.940738 0.200000
v -1.217395 -1.970375 0.200000
v -0.377852 -2.498425 0.200000
v -0.377852 -1.724693 0.200000
v -0.383984 -1.958675 0.200000
v -0.476506 -2.498425 0.200000
v -0.476506 -1.723857 0.200000
v -0.474754 -1.958452 0.200000
v -1.562717 -1.389855 0.200000
v -0.481955 -1.356931 0.200000
v -1.295915 -1.011076 0.200000
v -0.274020 -0.981306 0.200000
v -0.028024 -0.039269 0.200000
v 0.234590 -0.062176 0.200000
v 0.255344 0.049738 0.200000
v 0.290900 0.046812 0.200000
v -1.743723 -0.480281 0.200000
v -1.728559 -0.476117 0.200000
v 1.144576 -1.240229 0.200000
v -0.372596 -1.374999 0.200000
v 1.662922 -0.388045 0.200000
v 0.142118 -0.426543 0.200000
v 0.827349 0.060621 0.200000
v 0.405505 0.060270 0.200000
v 2.049829 0.254983 0.200000
v 0.829165 0.155078 0.200000
v 1.652478 0.870563 0.200000
v 0.853132 0.537292 0.200000
v 1.176917 1.604717 0.200000
v 0.791322 0.631899 0.200000
v -0.254810 0.929850 0.200000
v 0.393971 0.298881 0.200000
v -0.209399 0.458074 0.200000
v 0.343513 0.303927 0.200000
v 0.446951 0.158862 0.200000
v 0.448212 0.180306 0.200000
v 0.310663 0.204647 0.200000
v -0.178962 0.342633 0.200000
v -0.059567 0.130674 0.200000
v -0.199746 0.332778 0.200000
v 0.316747 0.189439 0.200000
v -0.031583 0.117291 0.200000
v 1.094086 1.715885 0.200000
v 0.261793 1.326566 0.200000
v 0.588382 2.500598 0.200000
v -0.206856 2.157055 0.200000
v 0.449098 2.497971 0.200000
v -0.088596 2.439126 0.200000
v -0.395344 0.990197 0.200000
v -0.346381 0.525879 0.200000
v -1.043884 1.864967 0.200000
v -1.085662 1.578471 0.200000
v 0.144086 1.276432 0.200000
v -0.546898 2.181032 0.200000
v 0.142825 1.305445 0.200000
v -0.312271 2.064980 0.200000
v -0.714645 -0.398927 0.200000
v -0.129746 0.011592 0.200000
v -1.673740 0.727283 0.200000
v -1.146968 1.448418 0.200000
v -1.722785 1.052430 0.200000
v -1.370393 1.450234 0.200000
v -1.275934 -0.840328 0.200000
v -0.818187 -0.469771 0.200000
v -2.040666 0.111500 0.200000
v -1.728237 0.603761 0.200000
v -2.042483 0.180526 0.200000
v -1.977093 0.525652 0.200000
v 0.915338 -2.495692 -0.200000
v -1.217395 -2.497374 -0.199988
v 0.915681 -1.614735 -0.199988
v -1.217395 -1.787374 -0.200000
v 0.914076 -1.940738 -0.199988
v -1.217395 -1.970375 -0.200000
v -0.377852 -2.498425 -0.200000
v -0.377852 -1.724693 -0.200000
v -0.383984 -1.958675 -0.200000
v -0.476506 -2.498425 -0.200000
v -0.476506 -1.723857 -0.200000
v -0.474754 -1.958452 -0.200000
v -1.562717 -1.389855 -0.199988
v -0.481955 -1.356931 -0.200000
v -1.295915 -1.011076 -0.200000
v -0.274020 -0.981306 -0.200000
v -0.028024 -0.039269 -0.200000
v 0.234590 -0.062176 -0.200000
v 0.255344 0.049738 -0.200000
v 0.290900 0.046812 -0.200000
v -1.743723 -0.480281 -0.200000
v -1.728559 -0.476117 -0.199988
v 1.144576 -1.240229 -0.199988
v -0.372596 -1.374999 -0.200000
v 1.662922 -0.388045 -0.199988
v 0.142118 -0.426543 -0.199988
v 0.827349 0.060621 -0.200000
v 0.405505 0.060270 -0.200000
v 2.049829 0.254983 -0.200000
v 0.829165 0.155078 -0.200000
v 1.652478 0.870563 -0.199988
v 0.853132 0.537292 -0.200000
v 1.176917 1.604717 -0.200000
v 0.791322 0.631899 -0.200000
v -0.254810 0.929850 -0.200000
v 0.393971 0.298881 -0.200000
v -0.209399 0.458074 -0.200000
v 0.343513 0.303927 -0.199988
v 0.446951 0.158862 -0.199988
v 0.448212 0.180306 -0.200000
v 0.310663 0.204647 -0.200000
v -0.178962 0.342633 -0.200000
v -0.059567 0.130674 -0.199988
v -0.199746 0.332778 -0.200000
v 0.316747 0.189439 -0.200000
v -0.031583 0.117291 -0.200000
v 1.094086 1.715885 -0.199988
v 0.261793 1.326566 -0.199988
v 0.588382 2.500598 -0.200000
v -0.206856 2.157055 -0.200000
v 0.449098 2.497971 -0.200000
v -0.088596 2.439126 -0.200000
v -0.395344 0.990197 -0.200000
v -0.346381 0.525879 -0.200000
v -1.043884 1.864967 -0.200000
v -1.085662 1.578471 -0.199988
v 0.144086 1.276432 -0.200000
v -0.546898 2.181032 -0.200000
v 0.142825 1.305445 -0.200000
v -0.312271 2.064980 -0.200000
v -0.714645 -0.398927 -0.200000
v -0.129746 0.011592 -0.200000
v -1.673740 0.727283 -0.199988
v -1.146968 1.448418 -0.200000
v -1.722785 1.052430 -0.200000
v -1.370393 1.450234 -0.200000
v -1.275934 -0.840328 -0.200000
v -0.818187 -0.469771 -0.200000
v -2.040666 0.111500 -0.200000
v -1.728237 0.603761 -0.200000
v -2.042483 0.180526 -0.200000
v -1.977093 0.525652 -0.200000
vt 0.654632 0.700000
vt 0.654632 1.000000
vt 1.000000 1.000000
vt 1.000000 0.700000
vt 0.654632 0.000000
vt 1.000000 0.000000
vt 0.000000 0.000000
vt 0.000000 0.700000
vt 0.608316 0.700000
vt 0.608316 0.000000
vt 0.000000 1.000000
vt 0.608316 1.000000
vt 0.654632 1.000000
vt 1.000000 1.000000
vt 0.654632 1.000000
vt 1.000000 1.000000
vt 0.654632 1.000000
vt 1.000000 1.000000
vt 0.654632 1.000000
vt 1.000000 1.000000
vt 1.000000 1.000000
vt 1.000000 1.000000
vt 0.000000 1.000000
vt 0.608316 1.000000
vt 0.000000 1.000000
vt 0.608316 1.000000
vt 0.000000 1.000000
vt 0.608316 1.000000
vt 0.000000 1.000000
vt 0.000000 1.000000
vt 0.000000 1.000000
vt 0.000000 1.000000
vt 0.000000 1.000000
vt 0.000000 1.000000
vt 0.000000 1.000000
vt 0.000000 1.000000
vt 0.000000 1.000000
vt 0.000000 1.000000
vt 0.000000 1.000000
vt 0.000000 1.000000
vt 0.000000 0.000000
vt 0.000000 0.000000
vt 0.000000 0.000000
vt 0.000000 0.000000
vt 0.000000 0.000000
vt 0.000000 0.000000
vt 0.000000 1.000000
vt 0.000000 1.000000
vt 0.000000 1.000000
vt 0.000000 1.000000
vt 0.000000 1.000000
vt 0.000000 1.000000
vt 0.000000 1.000000
vt 0.000000 1.000000
vt 0.000000 1.000000
vt 0.000000 1.000000
vt 0.000000 1.000000
vt 0.000000 1.000000
vt 0.000000 1.000000
vt 0.000000 1.000000
vt 1.000000 1.000000
vt 1.000000 1.000000
vt 1.000000 1.000000
vt 1.000000 1.000000
vt 1.000000 1.000000
vt 1.000000 1.000000
vt 1.000000 1.000000
vt 1.000000 1.000000
vt 1.000000 1.000000
vt 1.000000 1.000000
vt 1.000000 1.000000
vt 1.000000 1.000000
vt 0.654632 0.700000
vt 1.000000 0.700000
vt 1.000000 1.000000
vt 0.654632 1.000000
vt 0.654632 0.000000
vt 1.000000 0.000000
vt 0.000000 0.000000
vt 0.608316 0.000000
vt 0.608316 0.700000
vt 0.000000 0.700000
vt 0.608316 1.000000
vt 0.000000 1.000000
vt 1.000000 1.000000
vt 0.654632 1.000000
vt 1.000000 1.000000
vt 0.654632 1.000000
vt 1.000000 1.000000
vt 0.654632 1.000000
vt 1.000000 1.000000
vt 0.654632 1.000000
vt 1.000000 1.000000
vt 1.000000 1.000000
vt 0.608316 1.000000
vt 0.000000 1.000000
vt 0.608316 1.000000
vt 0.000000 1.000000
vt 0.608316 1.000000
vt 0.000000 1.000000
vt 0.000000 1.000000
vt 0.000000 1.000000
vt 0.000000 1.000000
vt 0.000000 1.000000
vt 0.000000 1.000000
vt 0.000000 1.000000
vt 0.000000 1.000000
vt 0.000000 1.000000
vt 0.000000 1.000000
vt 0.000000 1.000000
vt 0.000000 1.000000
vt 0.000000 1.000000
vt 0.000000 0.000000
vt 0.000000 0.000000
vt 0.000000 0.000000
vt 0.000000 0.000000
vt 0.000000 0.000000
vt 0.000000 0.000000
vt 0.000000 1.000000
vt 0.000000 1.000000
vt 0.000000 1.000000
vt 0.000000 1.000000
vt 0.000000 1.000000
vt 0.000000 1.000000
vt 0.000000 1.000000
vt 0.000000 1.000000
vt 0.000000 1.000000
vt 0.000000 1.000000
vt 0.000000 1.000000
vt 0.000000 1.000000
vt 0.000000 1.000000
vt 0.000000 1.000000
vt 1.000000 1.000000
vt 1.000000 1.000000
vt 1.000000 1.000000
vt 1.000000 1.000000
vt 1.000000 1.000000
vt 1.000000 1.000000
vt 1.000000 1.000000
vt 1.000000 1.000000
vt 1.000000 1.000000
vt 1.000000 1.000000
vt 1.000000 1.000000
vt 1.000000 1.000000
vn 0.0000 -0.0000 1.0000
vn -0.0000 0.0000 -1.0000
vn -0.0000 -0.0001 -1.0000
vn -0.0001 0.0003 -1.0000
vn 1.0000 0.0023 0.0000
vn -0.0014 -1.0000 0.0000
vn -1.0000 0.0000 0.0000
vn 1.0000 -0.0049 0.0000
vn 0.0021 -1.0000 0.0000
vn 0.0025 1.0000 0.0000
vn -0.9997 0.0262 0.0000
vn 0.0000 -1.0000 0.0000
vn 1.0000 0.0075 0.0000
vn -0.7549 -0.6558 0.0000
vn 0.9999 0.0148 0.0000
vn 0.8749 -0.4843 0.0000
vn -0.6083 0.7937 0.0000
vn 0.8750 -0.4842 0.0000
vn 0.0820 0.9966 0.0000
vn -0.2997 0.9540 0.0000
vn 0.8884 -0.4590 0.0000
vn -0.2648 0.9643 0.0000
vn -0.9808 -0.1952 0.0000
vn 0.7775 0.6288 0.0000
vn -0.9999 0.0150 0.0000
vn 0.8533 -0.5215 0.0000
vn -0.8789 0.4770 0.0000
vn 0.8544 -0.5197 0.0000
vn -0.0008 1.0000 0.0000
vn -0.8795 0.4759 0.0000
vn -0.9998 0.0192 0.0000
vn 0.8569 -0.5156 0.0000
vn 0.8402 0.5423 0.0000
vn -0.8372 -0.5469 0.0000
vn 0.8393 0.5437 0.0000
vn 0.6423 -0.7664 0.0000
vn -0.4264 0.9045 0.0000
vn -0.2686 -0.9633 0.0000
vn -0.0995 -0.9950 0.0000
vn -0.9954 -0.0958 0.0000
vn -0.9983 0.0587 0.0000
vn -0.0099 -1.0000 0.0000
vn -0.6613 0.7501 0.0000
vn 0.2028 -0.9792 0.0000
vn 0.9285 0.3714 0.0000
vn -0.4284 0.9036 0.0000
vn 0.2713 0.9625 0.0000
vn -0.8217 -0.5699 0.0000
vn -0.4315 -0.9021 0.0000
vn 0.4237 -0.9058 0.0000
vn -0.1088 0.9941 0.0000
vn -0.9222 0.3866 0.0000
vn -0.8709 -0.4915 0.0000
vn 0.8406 0.5417 0.0000
vn -0.0189 0.9998 0.0000
vn 0.9945 0.1049 0.0000
vn 0.8578 0.5140 0.0000
vn 0.4434 0.8963 0.0000
vn -0.9895 0.1443 0.0000
vn -0.8183 -0.5747 0.0000
vn -0.5366 0.8438 0.0000
vn 0.4687 -0.8833 0.0000
vn 0.9991 0.0434 0.0000
vn 0.5745 -0.8185 0.0000
vn 0.6292 -0.7772 0.0000
vn -0.7613 -0.6484 0.0000
vn 0.8162 0.5778 0.0000
vn -0.7485 0.6631 0.0000
vn -0.9888 -0.1492 0.0000
vn 0.0081 1.0000 0.0000
vn -0.9997 -0.0263 0.0000
vn -0.9825 0.1862 0.0000
vn -0.7796 -0.6263 0.0000
vn 0.7628 0.6466 0.0000
vn -0.2995 0.9541 0.0000
usemtl Berzerker
s off
f 12/1/1 11/2/1 4/3/1 6/4/1
f 10/5/1 12/1/1 6/4/1 2/6/1
f 1/7/1 5/8/1 9/9/1 7/10/1
f 5/8/1 3/11/1 8/12/1 9/9/1
f 7/10/1 9/9/1 12/1/1 10/5/1
f 11/2/1 14/13/1 13/14/1 4/3/1
f 14/13/1 16/15/1 15/16/1 13/14/1
f 16/15/1 18/17/1 17/18/1 15/16/1
f 18/17/1 20/19/1 19/20/1 17/18/1
f 15/16/1 22/21/1 21/22/1 13/14/1
f 3/11/1 23/23/1 24/24/1 8/12/1
f 23/23/1 25/25/1 26/26/1 24/24/1
f 25/25/1 27/27/1 28/28/1 26/26/1
f 25/25/1 29/29/1 30/30/1 27/27/1
f 29/29/1 31/31/1 32/32/1 30/30/1
f 31/31/1 33/33/1 34/34/1 32/32/1
f 33/33/1 35/35/1 36/36/1 34/34/1
f 35/35/1 37/37/1 38/38/1 36/36/1
f 32/32/1 40/39/1 39/40/1 30/30/1
f 43/41/1 41/42/1 42/43/1 44/44/1
f 43/41/1 46/45/1 45/46/1 41/42/1
f 49/47/1 51/48/1 52/49/1 50/50/1
f 47/51/1 49/47/1 50/50/1 48/52/1
f 57/53/1 59/54/1 60/55/1 58/56/1
f 53/57/1 55/58/1 56/59/1 54/60/1
f 53/57/1 57/53/1 58/56/1 55/58/1
f 62/61/1 64/62/1 63/63/1 61/64/1
f 64/62/1 66/65/1 65/66/1 63/63/1
f 70/67/1 72/68/1 71/69/1 69/70/1
f 68/71/1 70/67/1 69/70/1 67/72/1
f 84/73/2 78/74/2 76/75/2 83/76/2
f 82/77/2 74/78/2 78/74/2 84/73/2
f 73/79/2 79/80/2 81/81/2 77/82/2
f 77/82/2 81/81/2 80/83/2 75/84/2
f 79/80/2 82/77/2 84/73/2 81/81/2
f 83/76/2 76/75/2 85/85/2 86/86/2
f 86/86/2 85/85/2 87/87/2 88/88/2
f 88/88/2 87/87/2 89/89/2 90/90/2
f 90/90/2 89/89/2 91/91/2 92/92/2
f 87/87/2 85/85/2 93/93/2 94/94/2
f 75/84/2 80/83/2 96/95/2 95/96/2
f 95/96/2 96/95/2 98/97/2 97/98/2
f 97/98/2 98/97/2 100/99/2 99/100/2
f 97/98/2 99/100/2 102/101/2 101/102/2
f 101/102/2 102/101/2 104/103/2 103/104/2
f 103/104/2 104/103/2 106/105/2 105/106/2
f 105/106/2 106/105/2 108/107/2 107/108/2
f 107/108/2 108/107/2 110/109/2 109/110/2
f 104/103/2 102/101/2 111/111/2 112/112/2
f 115/113/3 116/114/3 114/115/3 113/116/3
f 115/113/4 113/116/4 117/117/4 118/118/4
f 121/119/2 122/120/2 124/121/2 123/122/2
f 119/123/2 120/124/2 122/120/2 121/119/2
f 129/125/2 130/126/2 132/127/2 131/128/2
f 125/129/2 126/130/2 128/131/2 127/132/2
f 125/129/2 127/132/2 130/126/2 129/125/2
f 134/133/2 133/134/2 135/135/2 136/136/2
f 136/136/2 135/135/2 137/137/2 138/138/2
f 142/139/2 141/140/2 143/141/2 144/142/2
f 140/143/2 139/144/2 141/140/2 142/139/2
f 1/7/5 73/79/5 77/82/5 5/8/5
f 2/6/6 74/78/6 82/77/6 10/5/6
f 4/3/7 76/75/7 78/74/7 6/4/7
f 5/8/8 77/82/8 75/84/8 3/11/8
f 6/4/7 78/74/7 74/78/7 2/6/7
f 7/10/9 79/80/9 73/79/9 1/7/9
f 9/9/10 81/81/10 84/73/10 12/1/10
f 8/12/11 80/83/11 81/81/11 9/9/11
f 10/5/12 82/77/12 79/80/12 7/10/12
f 12/1/13 84/73/13 83/76/13 11/2/13
f 13/14/14 85/85/14 76/75/14 4/3/14
f 11/2/15 83/76/15 86/86/15 14/13/15
f 14/13/16 86/86/16 88/88/16 16/15/16
f 17/18/17 89/89/17 87/87/17 15/16/17
f 16/15/18 88/88/18 90/90/18 18/17/18
f 20/19/19 92/92/19 91/91/19 19/20/19
f 19/20/20 91/91/20 89/89/20 17/18/20
f 18/17/21 90/90/21 92/92/21 20/19/21
f 22/21/22 94/94/22 93/93/22 21/22/22
f 21/22/23 93/93/23 85/85/23 13/14/23
f 15/16/24 87/87/24 94/94/24 22/21/24
f 24/24/25 96/95/25 80/83/25 8/12/25
f 3/11/26 75/84/26 95/96/26 23/23/26
f 26/26/27 98/97/27 96/95/27 24/24/27
f 23/23/28 95/96/28 97/98/28 25/25/28
f 27/27/29 99/100/29 100/99/29 28/28/29
f 28/28/30 100/99/30 98/97/30 26/26/30
f 30/30/31 102/101/31 99/100/31 27/27/31
f 25/25/32 97/98/32 101/102/32 29/29/32
f 29/29/33 101/102/33 103/104/33 31/31/33
f 34/34/34 106/105/34 104/103/34 32/32/34
f 31/31/35 103/104/35 105/106/35 33/33/35
f 36/36/36 108/107/36 106/105/36 34/34/36
f 33/33/37 105/106/37 107/108/37 35/35/37
f 37/37/38 109/110/38 110/109/38 38/38/38
f 38/38/39 110/109/39 108/107/39 36/36/39
f 35/35/40 107/108/40 109/110/40 37/37/40
f 40/39/41 112/112/41 111/111/41 39/40/41
f 39/40/42 111/111/42 102/101/42 30/30/42
f 32/32/43 104/103/43 112/112/43 40/39/43
f 46/45/44 118/118/44 117/117/44 45/46/44
f 45/46/45 117/117/45 113/116/45 41/42/45
f 42/43/46 114/115/46 116/114/46 44/44/46
f 41/42/47 113/116/47 114/115/47 42/43/47
f 44/44/48 116/114/48 115/113/48 43/41/48
f 43/41/49 115/113/49 118/118/49 46/45/49
f 48/52/50 120/124/50 119/123/50 47/51/50
f 51/48/51 123/122/51 124/121/51 52/49/51
f 52/49/52 124/121/52 122/120/52 50/50/52
f 50/50/53 122/120/53 120/124/53 48/52/53
f 47/51/54 119/123/54 121/119/54 49/47/54
f 49/47/55 121/119/55 123/122/55 51/48/55
f 54/60/56 126/130/56 125/129/56 53/57/56
f 59/54/57 131/128/57 132/127/57 60/55/57
f 60/55/58 132/127/58 130/126/58 58/56/58
f 55/58/59 127/132/59 128/131/59 56/59/59
f 56/59/60 128/131/60 126/130/60 54/60/60
f 58/56/61 130/126/61 127/132/61 55/58/61
f 53/57/62 125/129/62 129/125/62 57/53/62
f 57/53/63 129/125/63 131/128/63 59/54/63
f 61/64/64 133/134/64 134/133/64 62/61/64
f 67/72/65 139/144/65 140/143/65 68/71/65
f 63/63/66 135/135/66 133/134/66 61/64/66
f 62/61/67 134/133/67 136/136/67 64/62/67
f 66/65/68 138/138/68 137/137/68 65/66/68
f 65/66/69 137/137/69 135/135/69 63/63/69
f 64/62/70 136/136/70 138/138/70 66/65/70
f 71/69/71 143/141/71 141/140/71 69/70/71
f 72/68/72 144/142/72 143/141/72 71/69/72
f 69/70/73 141/140/73 139/144/73 67/72/73
f 68/71/74 140/143/74 142/139/74 70/67/74
f 70/67/75 142/139/75 144/142/75 72/68/75
