{
    "asset" : {
        "generator" : "Khronos glTF Blender I/O v1.0.5",
        "version" : "2.0"
    },
    "scene" : 0,
    "scenes" : [
        {
            "name" : "Scene",
            "nodes" : [
                0
            ]
        }
    ],
    "nodes" : [
        {
            "mesh" : 0,
            "name" : "Icosphere"
        }
    ],
    "materials" : [
        {
            "doubleSided" : true,
            "name" : "black_ball_mat",
            "pbrMetallicRoughness" : {
                "baseColorFactor" : [
                    0.054968833923339844,
                    0.054968833923339844,
                    0.054968833923339844,
                    1
                ],
                "metallicFactor" : 0,
                "roughnessFactor" : 0.5
            }
        },
        {
            "doubleSided" : true,
            "name" : "green_ball_mat",
            "pbrMetallicRoughness" : {
                "baseColorFactor" : [
                    0.0004162806726526469,
                    0.8829241991043091,
                    0,
                    1
                ],
                "metallicFactor" : 1,
                "roughnessFactor" : 0.5
            }
        }
    ],
    "meshes" : [
        {
            "name" : "Icosphere",
            "primitives" : [
                {
                    "attributes" : {
                        "POSITION" : 0,
                        "NORMAL" : 1,
                        "TEXCOORD_0" : 2
                    },
                    "indices" : 3,
                    "material" : 0
                },
                {
                    "attributes" : {
                        "POSITION" : 4,
                        "NORMAL" : 5,
                        "TEXCOORD_0" : 6
                    },
                    "indices" : 7,
                    "material" : 1
                }
            ]
        }
    ],
    "accessors" : [
        {
            "bufferView" : 0,
            "componentType" : 5126,
            "count" : 420,
            "max" : [
                0.8743429780006409,
                0.9350157976150513,
                0.8315415978431702
            ],
            "min" : [
                -0.8743429780006409,
                -0.9350157976150513,
                -0.8315415382385254
            ],
            "type" : "VEC3"
        },
        {
            "bufferView" : 1,
            "componentType" : 5126,
            "count" : 420,
            "type" : "VEC3"
        },
        {
            "bufferView" : 2,
            "componentType" : 5126,
            "count" : 420,
            "type" : "VEC2"
        },
        {
            "bufferView" : 3,
            "componentType" : 5123,
            "count" : 648,
            "type" : "SCALAR"
        },
        {
            "bufferView" : 4,
            "componentType" : 5126,
            "count" : 60,
            "max" : [
                0.7904748320579529,
                0.8453277945518494,
                0.7517789602279663
            ],
            "min" : [
                -0.7904748320579529,
                -0.8453277945518494,
                -0.7517789006233215
            ],
            "type" : "VEC3"
        },
        {
            "bufferView" : 5,
            "componentType" : 5126,
            "count" : 60,
            "type" : "VEC3"
        },
        {
            "bufferView" : 6,
            "componentType" : 5126,
            "count" : 60,
            "type" : "VEC2"
        },
        {
            "bufferView" : 7,
            "componentType" : 5123,
            "count" : 60,
            "type" : "SCALAR"
        }
    ],
    "bufferViews" : [
        {
            "buffer" : 0,
            "byteLength" : 5040,
            "byteOffset" : 0
        },
        {
            "buffer" : 0,
            "byteLength" : 5040,
            "byteOffset" : 5040
        },
        {
            "buffer" : 0,
            "byteLength" : 3360,
            "byteOffset" : 10080
        },
        {
            "buffer" : 0,
            "byteLength" : 1296,
            "byteOffset" : 13440
        },
        {
            "buffer" : 0,
            "byteLength" : 720,
            "byteOffset" : 14736
        },
        {
            "buffer" : 0,
            "byteLength" : 720,
            "byteOffset" : 15456
        },
        {
            "buffer" : 0,
            "byteLength" : 480,
            "byteOffset" : 16176
        },
        {
            "buffer" : 0,
            "byteLength" : 120,
            "byteOffset" : 16656
        }
    ],
    "buffers" : [
        {
            "byteLength" : 16776,
            "uri" : "data:application/octet-stream;base64,"
        }
    ]
}
