{
    "asset" : {
        "generator" : "Khronos glTF Blender I/O v1.0.5",
        "version" : "2.0"
    },
    "scene" : 0,
    "scenes" : [
        {
            "name" : "Scene",
            "nodes" : [
                0
            ]
        }
    ],
    "nodes" : [
        {
            "mesh" : 0,
            "name" : "path1024",
            "scale" : [
                6.558027267456055,
                6.558027267456055,
                6.558027267456055
            ]
        }
    ],
    "materials" : [
        {
            "doubleSided" : true,
            "name" : "SVGMat",
            "pbrMetallicRoughness" : {}
        }
    ],
    "meshes" : [
        {
            "name" : "path1024",
            "primitives" : [
                {
                    "attributes" : {
                        "POSITION" : 0,
                        "NORMAL" : 1
                    },
                    "indices" : 2,
                    "material" : 0
                }
            ]
        }
    ],
    "accessors" : [
        {
            "bufferView" : 0,
            "componentType" : 5126,
            "count" : 2206,
            "max" : [
                0.056189462542533875,
                0.0034924019128084183,
                0.08684397488832474
            ],
            "min" : [
                -0.06500813364982605,
                -0.0034923311322927475,
                -0.09501701593399048
            ],
            "type" : "VEC3"
        },
        {
            "bufferView" : 1,
            "componentType" : 5126,
            "count" : 2206,
            "type" : "VEC3"
        },
        {
            "bufferView" : 2,
            "componentType" : 5123,
            "count" : 4452,
            "type" : "SCALAR"
        }
    ],
    "bufferViews" : [
        {
            "buffer" : 0,
            "byteLength" : 26472,
            "byteOffset" : 0
        },
        {
            "buffer" : 0,
            "byteLength" : 26472,
            "byteOffset" : 26472
        },
        {
            "buffer" : 0,
            "byteLength" : 8904,
            "byteOffset" : 52944
        }
    ],
    "buffers" : [
        {
            "byteLength" : 61848,
            "uri" : "data:application/octet-stream;base64,"
        }
    ]
}
