# Blender v2.80 (sub 75) OBJ File: 'head_cue.blend'
# www.blender.org
o Cube
v -0.730373 0.007159 -0.071286
v -0.743676 -0.016297 -0.071286
v -0.760638 -0.009982 -0.087643
v -0.744499 0.018475 -0.087643
v 0.016357 0.389559 -0.087643
v 0.014475 0.372065 -0.071286
v -0.014475 0.372065 -0.071286
v -0.016357 0.389559 -0.087643
v 0.730373 0.007159 -0.071286
v 0.744499 0.018475 -0.087643
v 0.760638 -0.009982 -0.087643
v 0.743676 -0.016297 -0.071286
v 0.730373 0.007159 0.071286
v 0.743676 -0.016297 0.071286
v 0.760638 -0.009982 0.087643
v 0.744499 0.018475 0.087643
v -0.016357 0.389559 0.087643
v -0.014475 0.372065 0.071286
v 0.014475 0.372065 0.071286
v 0.016357 0.389559 0.087643
v -0.760638 -0.009982 0.087643
v -0.743676 -0.016297 0.071286
v -0.730373 0.007159 0.071286
v -0.744499 0.018475 0.087643
v 0.233264 -0.492280 -0.087643
v 0.233264 -0.508637 -0.071286
v 0.216906 -0.492280 -0.071286
v 0.233264 -0.492280 0.087643
v 0.216906 -0.492280 0.071286
v 0.233264 -0.508637 0.071286
v 0.252146 -0.217909 0.087643
v 0.232319 -0.207562 0.071286
v 0.216895 -0.229364 0.071286
v 0.233253 -0.244617 0.087643
v 0.609702 -0.074347 0.071286
v 0.614845 -0.089878 0.087643
v 0.645899 -0.079589 0.087643
v 0.640751 -0.064059 0.071286
v 0.252146 -0.217909 -0.087643
v 0.233253 -0.244617 -0.087643
v 0.216895 -0.229364 -0.071286
v 0.232319 -0.207562 -0.071286
v 0.640751 -0.064059 -0.071286
v 0.645899 -0.079589 -0.087643
v 0.614845 -0.089878 -0.087643
v 0.609702 -0.074347 -0.071286
v -0.233264 -0.492280 -0.087643
v -0.216906 -0.492280 -0.071286
v -0.233264 -0.508637 -0.071286
v -0.233264 -0.492280 0.087643
v -0.233264 -0.508637 0.071286
v -0.216906 -0.492280 0.071286
v -0.216895 -0.229364 0.071286
v -0.232319 -0.207562 0.071286
v -0.252146 -0.217909 0.087643
v -0.233253 -0.244617 0.087643
v -0.640751 -0.064059 0.071286
v -0.645899 -0.079589 0.087643
v -0.614845 -0.089878 0.087643
v -0.609702 -0.074347 0.071286
v -0.216895 -0.229364 -0.071286
v -0.233253 -0.244617 -0.087643
v -0.252146 -0.217909 -0.087643
v -0.232319 -0.207562 -0.071286
v -0.609702 -0.074347 -0.071286
v -0.614845 -0.089878 -0.087643
v -0.645899 -0.079589 -0.087643
v -0.640751 -0.064059 -0.071286
v 0.759316 -0.025320 -0.087643
v 0.738794 -0.050797 -0.087643
v 0.726647 -0.037436 -0.071286
v 0.743676 -0.016297 -0.071286
v 0.738794 -0.050797 0.087643
v 0.759316 -0.025320 0.087643
v 0.743676 -0.016297 0.071286
v 0.726647 -0.037436 0.071286
v -0.759316 -0.025320 0.087643
v -0.738794 -0.050797 0.087643
v -0.726647 -0.037436 0.071286
v -0.743676 -0.016297 0.071286
v -0.738794 -0.050797 -0.087643
v -0.759316 -0.025320 -0.087643
v -0.743676 -0.016297 -0.071286
v -0.726647 -0.037436 -0.071286
v 0.422622 0.175737 0.087643
v 0.415233 0.161141 0.071286
v 0.444415 0.146363 0.071286
v 0.451808 0.160957 0.087643
v 0.422622 0.175737 -0.087643
v 0.451808 0.160957 -0.087643
v 0.444415 0.146363 -0.071286
v 0.415233 0.161141 -0.071286
v -0.422622 0.175737 0.087643
v -0.451808 0.160957 0.087643
v -0.444415 0.146363 0.071286
v -0.415233 0.161141 0.071286
v -0.422622 0.175737 -0.087643
v -0.415233 0.161141 -0.071286
v -0.444415 0.146363 -0.071286
v -0.451808 0.160957 -0.087643
v -0.808952 0.052131 -0.071286
v -0.789509 0.044001 -0.087643
v -0.804520 0.014905 -0.087643
v -0.822021 0.028095 -0.071286
v 0.016357 0.443182 -0.087643
v -0.016357 0.443182 -0.087643
v -0.014622 0.462351 -0.071286
v 0.014622 0.462351 -0.071286
v 0.808952 0.052131 -0.071286
v 0.822021 0.028095 -0.071286
v 0.804520 0.014905 -0.087643
v 0.789509 0.044001 -0.087643
v 0.808952 0.052131 0.071286
v 0.789509 0.044001 0.087643
v 0.804520 0.014905 0.087643
v 0.822021 0.028095 0.071286
v -0.016357 0.443182 0.087643
v 0.016357 0.443182 0.087643
v 0.014622 0.462351 0.071286
v -0.014622 0.462351 0.071286
v -0.804520 0.014905 0.087643
v -0.789509 0.044001 0.087643
v -0.808952 0.052131 0.071286
v -0.822021 0.028095 0.071286
v 0.289402 -0.492278 -0.087643
v 0.305799 -0.492315 -0.071286
v 0.290550 -0.508635 -0.071286
v 0.289402 -0.492278 0.087643
v 0.290550 -0.508635 0.071286
v 0.305799 -0.492315 0.071286
v 0.293266 -0.247000 0.087643
v 0.274572 -0.273848 0.087643
v 0.291473 -0.281304 0.071286
v 0.306011 -0.260216 0.071286
v 0.637784 -0.159103 0.071286
v 0.668562 -0.148119 0.071286
v 0.663442 -0.132539 0.087643
v 0.632634 -0.143572 0.087643
v 0.293266 -0.247000 -0.087643
v 0.306011 -0.260216 -0.071286
v 0.291473 -0.281304 -0.071286
v 0.274572 -0.273848 -0.087643
v 0.668562 -0.148119 -0.071286
v 0.637784 -0.159103 -0.071286
v 0.632634 -0.143572 -0.087643
v 0.663442 -0.132539 -0.087643
v -0.289402 -0.492278 -0.087643
v -0.290550 -0.508635 -0.071286
v -0.305799 -0.492315 -0.071286
v -0.289402 -0.492278 0.087643
v -0.305799 -0.492315 0.071286
v -0.290550 -0.508635 0.071286
v -0.291473 -0.281304 0.071286
v -0.274572 -0.273848 0.087643
v -0.293266 -0.247000 0.087643
v -0.306011 -0.260216 0.071286
v -0.668562 -0.148119 0.071286
v -0.637784 -0.159103 0.071286
v -0.632634 -0.143572 0.087643
v -0.663442 -0.132539 0.087643
v -0.291473 -0.281304 -0.071286
v -0.306011 -0.260216 -0.071286
v -0.293266 -0.247000 -0.087643
v -0.274572 -0.273848 -0.087643
v -0.637784 -0.159103 -0.071286
v -0.668562 -0.148119 -0.071286
v -0.663442 -0.132539 -0.087643
v -0.632634 -0.143572 -0.087643
v 0.798593 -0.056958 -0.087643
v 0.813703 -0.072750 -0.071286
v 0.797228 -0.095267 -0.071286
v 0.780551 -0.084434 -0.087643
v 0.780551 -0.084434 0.087643
v 0.797228 -0.095267 0.071286
v 0.813703 -0.072750 0.071286
v 0.798593 -0.056958 0.087643
v -0.798593 -0.056958 0.087643
v -0.813703 -0.072750 0.071286
v -0.797228 -0.095267 0.071286
v -0.780551 -0.084434 0.087643
v -0.780551 -0.084434 -0.087643
v -0.797228 -0.095267 -0.071286
v -0.813703 -0.072750 -0.071286
v -0.798593 -0.056958 -0.087643
v 0.448355 0.226553 0.087643
v 0.477393 0.211480 0.087643
v 0.484780 0.226079 0.071286
v 0.455745 0.241146 0.071286
v 0.448355 0.226553 -0.087643
v 0.455745 0.241146 -0.071286
v 0.484780 0.226079 -0.071286
v 0.477393 0.211480 -0.087643
v -0.448355 0.226553 0.087643
v -0.455745 0.241146 0.071286
v -0.484780 0.226079 0.071286
v -0.477393 0.211480 0.087643
v -0.448355 0.226553 -0.087643
v -0.477393 0.211480 -0.087643
v -0.484780 0.226079 -0.071286
v -0.455745 0.241146 -0.071286
vn 0.0000 0.0000 -1.0000
vn -0.0000 -1.0000 0.0000
vn 0.0000 0.0000 1.0000
vn -0.2960 0.9552 0.0000
vn -1.0000 0.0000 0.0000
vn -0.4377 -0.8991 0.0000
vn -0.4483 0.8939 0.0000
vn -0.2915 -0.9566 0.0000
vn -0.3800 -0.9250 0.0000
vn 0.2915 -0.9566 0.0000
vn 0.3800 -0.9250 0.0000
vn 0.4483 0.8939 0.0000
vn -0.4728 0.8812 0.0000
vn 0.9977 0.0677 0.0000
vn -0.9977 0.0677 0.0000
vn 0.9966 -0.0822 0.0000
vn 0.4728 0.8812 0.0000
vn -0.4657 -0.8849 -0.0000
vn 0.4657 -0.8849 0.0000
vn -0.3329 0.9430 0.0000
vn -0.9966 -0.0822 -0.0000
vn 1.0000 -0.0000 0.0000
vn 0.2960 0.9552 0.0000
vn 0.3329 0.9430 0.0000
vn 0.4377 -0.8991 -0.0000
vn 0.5873 -0.3331 -0.7376
vn 0.0000 -0.6830 -0.7304
vn -0.5873 -0.3331 -0.7376
vn -0.5873 -0.3331 0.7376
vn 0.0000 -0.6830 0.7304
vn 0.5873 -0.3331 0.7376
vn -0.5773 -0.5774 -0.5773
vn -0.5773 -0.5774 0.5773
vn -0.4848 0.3430 0.8046
vn -0.2224 0.6712 0.7072
vn -0.4848 0.3430 -0.8046
vn -0.2224 0.6712 -0.7072
vn 0.5773 -0.5774 -0.5773
vn 0.5773 -0.5774 0.5773
vn 0.4848 0.3430 0.8046
vn 0.2224 0.6712 0.7072
vn 0.4848 0.3430 -0.8046
vn 0.2224 0.6712 -0.7072
vn -0.5263 0.4239 -0.7371
vn -0.5263 0.4239 0.7371
vn 0.5263 0.4239 0.7371
vn 0.5263 0.4239 -0.7371
vn -0.3194 -0.6308 0.7072
vn -0.3194 -0.6308 -0.7072
vn 0.3194 -0.6308 0.7072
vn 0.3194 -0.6308 -0.7072
vn -0.5383 0.2845 -0.7933
vn 0.0000 0.6491 -0.7607
vn 0.5383 0.2845 -0.7933
vn 0.5383 0.2845 0.7933
vn 0.0000 0.6491 0.7607
vn -0.5383 0.2845 0.7933
vn 0.5890 -0.5504 -0.5917
vn 0.5890 -0.5504 0.5917
vn 0.5515 -0.3823 0.7414
vn 0.2379 -0.6654 0.7075
vn 0.5515 -0.3823 -0.7414
vn 0.2379 -0.6654 -0.7075
vn -0.5890 -0.5504 -0.5917
vn -0.5890 -0.5504 0.5917
vn -0.5515 -0.3823 0.7414
vn -0.2379 -0.6654 0.7075
vn -0.5515 -0.3823 -0.7414
vn -0.2379 -0.6654 -0.7075
vn 0.5111 -0.3529 -0.7838
vn 0.5111 -0.3529 0.7838
vn -0.5111 -0.3529 0.7838
vn -0.5111 -0.3529 -0.7838
vn 0.3257 0.6276 0.7071
vn 0.3257 0.6276 -0.7071
vn -0.3257 0.6276 0.7071
vn -0.3257 0.6276 -0.7071
vn 0.3145 0.9493 0.0000
vn -0.3145 0.9493 0.0000
vn -0.8698 -0.4933 0.0000
vn 0.3293 -0.6257 0.7071
vn -0.3293 -0.6257 0.7071
vn 0.7045 0.0607 0.7071
vn -0.7045 0.0607 -0.7071
vn -0.3293 -0.6257 -0.7071
vn 0.3293 -0.6257 -0.7071
vn -0.2093 0.6754 0.7071
vn -0.2354 0.6668 -0.7071
vn -0.7071 -0.0000 -0.7071
vn -0.2354 0.6668 0.7071
vn -0.7071 -0.0000 0.7071
vn -0.7071 -0.7071 0.0000
vn 0.8698 -0.4933 -0.0000
vn -0.8164 0.5775 0.0000
vn 0.8164 0.5775 0.0000
vn 0.2093 0.6754 -0.7071
vn 0.2354 0.6668 -0.7071
vn 0.7071 -0.0000 -0.7071
vn 0.2354 0.6668 0.7071
vn 0.7071 -0.0000 0.7071
vn 0.7071 -0.7071 0.0000
vn -0.2093 0.6754 -0.7071
vn -0.7045 0.0607 0.7071
vn -0.7788 0.6273 0.0000
vn 0.2093 0.6754 0.7071
vn 0.7045 0.0607 -0.7071
vn 0.7788 0.6273 0.0000
vn -0.3095 -0.6358 0.7071
vn -0.3095 -0.6358 -0.7071
vn -0.4518 -0.8921 0.0000
vn 0.3095 -0.6358 0.7071
vn 0.3095 -0.6358 -0.7071
vn 0.4518 -0.8921 0.0000
vn -0.3361 -0.9418 0.0000
vn 0.3361 -0.9418 0.0000
vn 0.8785 0.4777 0.0000
vn -0.3170 0.6321 0.7071
vn 0.3170 0.6321 0.7071
vn -0.7047 -0.0581 0.7071
vn 0.7047 -0.0581 -0.7071
vn 0.3170 0.6321 -0.7071
vn -0.3170 0.6321 -0.7071
vn 0.0000 1.0000 -0.0000
vn 0.2687 -0.6541 0.7071
vn 0.2061 -0.6764 -0.7071
vn 0.7055 0.0479 -0.7071
vn 0.2061 -0.6764 0.7071
vn 0.7055 0.0479 0.7071
vn 0.7307 -0.6827 0.0000
vn -0.8785 0.4777 0.0000
vn 0.8233 -0.5676 0.0000
vn -0.8233 -0.5676 0.0000
vn -0.2687 -0.6541 -0.7071
vn -0.2061 -0.6764 -0.7071
vn -0.7055 0.0479 -0.7071
vn -0.2061 -0.6764 0.7071
vn -0.7055 0.0479 0.7071
vn -0.7307 -0.6827 0.0000
vn 0.2687 -0.6541 -0.7071
vn 0.7047 -0.0581 0.7071
vn 0.8070 -0.5905 0.0000
vn -0.2687 -0.6541 0.7071
vn -0.7047 -0.0581 -0.7071
vn -0.8070 -0.5905 0.0000
vn 0.3343 0.6231 0.7071
vn 0.3343 0.6231 -0.7071
vn 0.4606 0.8876 0.0000
vn -0.3343 0.6231 0.7071
vn -0.3343 0.6231 -0.7071
vn -0.4606 0.8876 0.0000
vn 0.0000 -0.7071 -0.7071
vn 0.0000 -0.7071 0.7071
s off
f 8//1 97//1 197//1 106//1
f 49//2 51//2 152//2 148//2
f 55//3 59//3 159//3 155//3
f 30//2 26//2 127//2 129//2
f 43//4 38//4 76//4 71//4
f 100//1 4//1 102//1 198//1
f 3//1 82//1 184//1 103//1
f 10//1 90//1 192//1 112//1
f 73//3 37//3 137//3 173//3
f 58//3 78//3 180//3 160//3
f 72//5 75//5 14//5 12//5
f 9//6 13//6 87//6 91//6
f 120//7 107//7 200//7 194//7
f 158//8 165//8 162//8 156//8
f 166//9 157//9 179//9 182//9
f 135//10 134//10 140//10 144//10
f 143//11 171//11 174//11 136//11
f 190//12 108//12 119//12 188//12
f 195//13 199//13 101//13 123//13
f 126//14 141//14 133//14 130//14
f 153//15 161//15 149//15 151//15
f 170//16 110//16 116//16 175//16
f 109//17 191//17 187//17 113//17
f 20//3 85//3 185//3 118//3
f 77//3 21//3 121//3 177//3
f 24//3 94//3 196//3 122//3
f 15//3 74//3 176//3 115//3
f 92//18 86//18 19//18 6//18
f 18//19 96//19 98//19 7//19
f 39//1 45//1 145//1 139//1
f 44//1 70//1 172//1 146//1
f 27//5 29//5 33//5 41//5
f 35//20 46//20 42//20 32//20
f 36//3 31//3 131//3 138//3
f 34//3 28//3 128//3 132//3
f 183//21 178//21 124//21 104//21
f 81//1 67//1 167//1 181//1
f 53//22 52//22 48//22 61//22
f 68//23 84//23 79//23 57//23
f 60//24 54//24 64//24 65//24
f 50//3 56//3 154//3 150//3
f 62//1 47//1 147//1 164//1
f 88//3 16//3 114//3 186//3
f 66//1 63//1 163//1 168//1
f 95//25 23//25 1//25 99//25
f 93//3 17//3 117//3 193//3
f 69//1 11//1 111//1 169//1
f 25//1 40//1 142//1 125//1
f 89//1 5//1 105//1 189//1
f 1//26 2//26 3//26 4//26
f 5//27 6//27 7//27 8//27
f 9//28 10//28 11//28 12//28
f 13//29 14//29 15//29 16//29
f 17//30 18//30 19//30 20//30
f 21//31 22//31 23//31 24//31
f 25//32 26//32 27//32
f 28//33 29//33 30//33
f 31//34 32//34 33//34 34//34
f 35//35 36//35 37//35 38//35
f 39//36 40//36 41//36 42//36
f 43//37 44//37 45//37 46//37
f 47//38 48//38 49//38
f 50//39 51//39 52//39
f 53//40 54//40 55//40 56//40
f 57//41 58//41 59//41 60//41
f 61//42 62//42 63//42 64//42
f 65//43 66//43 67//43 68//43
f 69//44 70//44 71//44 72//44
f 73//45 74//45 75//45 76//45
f 77//46 78//46 79//46 80//46
f 81//47 82//47 83//47 84//47
f 85//48 86//48 87//48 88//48
f 89//49 90//49 91//49 92//49
f 93//50 94//50 95//50 96//50
f 97//51 98//51 99//51 100//51
f 101//52 102//52 103//52 104//52
f 105//53 106//53 107//53 108//53
f 109//54 110//54 111//54 112//54
f 113//55 114//55 115//55 116//55
f 117//56 118//56 119//56 120//56
f 121//57 122//57 123//57 124//57
f 125//58 126//58 127//58
f 128//59 129//59 130//59
f 131//60 132//60 133//60 134//60
f 135//61 136//61 137//61 138//61
f 139//62 140//62 141//62 142//62
f 143//63 144//63 145//63 146//63
f 147//64 148//64 149//64
f 150//65 151//65 152//65
f 153//66 154//66 155//66 156//66
f 157//67 158//67 159//67 160//67
f 161//68 162//68 163//68 164//68
f 165//69 166//69 167//69 168//69
f 169//70 170//70 171//70 172//70
f 173//71 174//71 175//71 176//71
f 177//72 178//72 179//72 180//72
f 181//73 182//73 183//73 184//73
f 185//74 186//74 187//74 188//74
f 189//75 190//75 191//75 192//75
f 193//76 194//76 195//76 196//76
f 197//77 198//77 199//77 200//77
f 60//78 65//78 68//78 57//78
f 46//79 35//79 38//79 43//79
f 13//80 9//80 12//80 14//80
f 96//81 18//81 17//81 93//81
f 85//82 20//82 19//82 86//82
f 80//83 22//83 21//83 77//83
f 72//84 12//84 11//84 69//84
f 92//85 6//85 5//85 89//85
f 97//86 8//86 7//86 98//86
f 18//2 7//2 6//2 19//2
f 76//87 38//87 37//87 73//87
f 45//88 39//88 42//88 46//88
f 40//89 25//89 27//89 41//89
f 35//90 32//90 31//90 36//90
f 33//91 29//91 28//91 34//91
f 26//92 30//92 29//92 27//92
f 22//93 2//93 1//93 23//93
f 41//94 33//94 32//94 42//94
f 64//95 54//95 53//95 61//95
f 84//96 68//96 67//96 81//96
f 65//97 64//97 63//97 66//97
f 61//98 48//98 47//98 62//98
f 59//99 55//99 54//99 60//99
f 56//100 50//100 52//100 53//100
f 48//101 52//101 51//101 49//101
f 43//102 71//102 70//102 44//102
f 14//103 75//103 74//103 15//103
f 75//104 72//104 71//104 76//104
f 57//105 79//105 78//105 58//105
f 2//106 83//106 82//106 3//106
f 83//107 80//107 79//107 84//107
f 16//108 88//108 87//108 13//108
f 9//109 91//109 90//109 10//109
f 86//110 92//110 91//110 87//110
f 23//111 95//111 94//111 24//111
f 4//112 100//112 99//112 1//112
f 95//113 99//113 98//113 96//113
f 157//114 166//114 165//114 158//114
f 143//115 136//115 135//115 144//115
f 116//116 110//116 109//116 113//116
f 193//117 117//117 120//117 194//117
f 188//118 119//118 118//118 185//118
f 177//119 121//119 124//119 178//119
f 169//120 111//120 110//120 170//120
f 189//121 105//121 108//121 190//121
f 200//122 107//122 106//122 197//122
f 119//123 108//123 107//123 120//123
f 173//124 137//124 136//124 174//124
f 144//125 140//125 139//125 145//125
f 141//126 126//126 125//126 142//126
f 138//127 131//127 134//127 135//127
f 132//128 128//128 130//128 133//128
f 126//129 130//129 129//129 127//129
f 123//130 101//130 104//130 124//130
f 140//131 134//131 133//131 141//131
f 161//132 153//132 156//132 162//132
f 181//133 167//133 166//133 182//133
f 168//134 163//134 162//134 165//134
f 164//135 147//135 149//135 161//135
f 158//136 156//136 155//136 159//136
f 153//137 151//137 150//137 154//137
f 148//138 152//138 151//138 149//138
f 146//139 172//139 171//139 143//139
f 115//140 176//140 175//140 116//140
f 174//141 171//141 170//141 175//141
f 160//142 180//142 179//142 157//142
f 103//143 184//143 183//143 104//143
f 182//144 179//144 178//144 183//144
f 113//145 187//145 186//145 114//145
f 112//146 192//146 191//146 109//146
f 187//147 191//147 190//147 188//147
f 122//148 196//148 195//148 123//148
f 101//149 199//149 198//149 102//149
f 194//150 200//150 199//150 195//150
f 3//1 103//1 102//1 4//1
f 8//1 106//1 105//1 5//1
f 10//1 112//1 111//1 11//1
f 15//3 115//3 114//3 16//3
f 20//3 118//3 117//3 17//3
f 24//3 122//3 121//3 21//3
f 25//151 125//151 127//151 26//151
f 30//152 129//152 128//152 28//152
f 34//3 132//3 131//3 31//3
f 36//3 138//3 137//3 37//3
f 39//1 139//1 142//1 40//1
f 44//1 146//1 145//1 45//1
f 49//151 148//151 147//151 47//151
f 50//152 150//152 152//152 51//152
f 55//3 155//3 154//3 56//3
f 58//3 160//3 159//3 59//3
f 62//1 164//1 163//1 63//1
f 66//1 168//1 167//1 67//1
f 69//1 169//1 172//1 70//1
f 73//3 173//3 176//3 74//3
f 77//3 177//3 180//3 78//3
f 81//1 181//1 184//1 82//1
f 88//3 186//3 185//3 85//3
f 89//1 189//1 192//1 90//1
f 93//3 193//3 196//3 94//3
f 100//1 198//1 197//1 97//1
f 83//22 2//22 22//22 80//22
