{
    "asset" : {
        "generator" : "Khronos glTF Blender I/O v1.0.5",
        "version" : "2.0"
    },
    "scene" : 0,
    "scenes" : [
        {
            "name" : "Scene",
            "nodes" : [
                0,
                1
            ]
        }
    ],
    "nodes" : [
        {
            "mesh" : 0,
            "name" : "Torus.001",
            "scale" : [
                0.7483431100845337,
                1,
                1
            ]
        },
        {
            "mesh" : 1,
            "name" : "Cube",
            "rotation" : [
                0,
                0.3826834559440613,
                0,
                0.9238795042037964
            ],
            "scale" : [
                0.555810272693634,
                -0.07752903550863266,
                -0.07752903550863266
            ]
        }
    ],
    "materials" : [
        {
            "doubleSided" : true,
            "name" : "Material.001",
            "pbrMetallicRoughness" : {
                "baseColorFactor" : [
                    0,
                    0,
                    0,
                    1
                ],
                "metallicFactor" : 0,
                "roughnessFactor" : 0.5
            }
        },
        {
            "doubleSided" : true,
            "name" : "Material",
            "pbrMetallicRoughness" : {
                "baseColorFactor" : [
                    0.4019691050052643,
                    0.0031096588354557753,
                    0,
                    1
                ],
                "metallicFactor" : 0,
                "roughnessFactor" : 0.5
            }
        }
    ],
    "meshes" : [
        {
            "name" : "Torus.001",
            "primitives" : [
                {
                    "attributes" : {
                        "POSITION" : 0,
                        "NORMAL" : 1,
                        "TEXCOORD_0" : 2
                    },
                    "indices" : 3,
                    "material" : 0
                }
            ]
        },
        {
            "name" : "Cube",
            "primitives" : [
                {
                    "attributes" : {
                        "POSITION" : 4,
                        "NORMAL" : 5,
                        "TEXCOORD_0" : 6
                    },
                    "indices" : 7,
                    "material" : 1
                }
            ]
        }
    ],
    "accessors" : [
        {
            "bufferView" : 0,
            "componentType" : 5126,
            "count" : 1068,
            "max" : [
                1.1879323720932007,
                0.08660253882408142,
                1.275541067123413
            ],
            "min" : [
                -1.1879323720932007,
                -0.08660253882408142,
                -1.100000023841858
            ],
            "type" : "VEC3"
        },
        {
            "bufferView" : 1,
            "componentType" : 5126,
            "count" : 1068,
            "type" : "VEC3"
        },
        {
            "bufferView" : 2,
            "componentType" : 5126,
            "count" : 1068,
            "type" : "VEC2"
        },
        {
            "bufferView" : 3,
            "componentType" : 5123,
            "count" : 1776,
            "type" : "SCALAR"
        },
        {
            "bufferView" : 4,
            "componentType" : 5126,
            "count" : 284,
            "max" : [
                0.9587963223457336,
                1,
                7.01059627532959
            ],
            "min" : [
                -1,
                -1,
                -7.216636657714844
            ],
            "type" : "VEC3"
        },
        {
            "bufferView" : 5,
            "componentType" : 5126,
            "count" : 284,
            "type" : "VEC3"
        },
        {
            "bufferView" : 6,
            "componentType" : 5126,
            "count" : 284,
            "type" : "VEC2"
        },
        {
            "bufferView" : 7,
            "componentType" : 5123,
            "count" : 468,
            "type" : "SCALAR"
        }
    ],
    "bufferViews" : [
        {
            "buffer" : 0,
            "byteLength" : 12816,
            "byteOffset" : 0
        },
        {
            "buffer" : 0,
            "byteLength" : 12816,
            "byteOffset" : 12816
        },
        {
            "buffer" : 0,
            "byteLength" : 8544,
            "byteOffset" : 25632
        },
        {
            "buffer" : 0,
            "byteLength" : 3552,
            "byteOffset" : 34176
        },
        {
            "buffer" : 0,
            "byteLength" : 3408,
            "byteOffset" : 37728
        },
        {
            "buffer" : 0,
            "byteLength" : 3408,
            "byteOffset" : 41136
        },
        {
            "buffer" : 0,
            "byteLength" : 2272,
            "byteOffset" : 44544
        },
        {
            "buffer" : 0,
            "byteLength" : 936,
            "byteOffset" : 46816
        }
    ],
    "buffers" : [
        {
            "byteLength" : 47752,
            "uri" : "data:application/octet-stream;base64,"
        }
    ]
}
