{
    "asset" : {
        "generator" : "Khronos glTF Blender I/O v1.0.5",
        "version" : "2.0"
    },
    "scene" : 0,
    "scenes" : [
        {
            "name" : "Scene",
            "nodes" : [
                0,
                1
            ]
        }
    ],
    "nodes" : [
        {
            "mesh" : 0,
            "name" : "Text",
            "translation" : [
                0,
                0.01907559670507908,
                -0.13789112865924835
            ]
        },
        {
            "mesh" : 1,
            "name" : "Circle",
            "scale" : [
                0.4922427535057068,
                0.4922427535057068,
                0.4922427535057068
            ]
        }
    ],
    "materials" : [
        {
            "doubleSided" : true,
            "name" : "red_heart",
            "pbrMetallicRoughness" : {
                "baseColorFactor" : [
                    0.8000000715255737,
                    0.0007880629855208099,
                    0,
                    1
                ],
                "metallicFactor" : 0,
                "roughnessFactor" : 0.5
            }
        },
        {
            "doubleSided" : true,
            "name" : "blue_coin",
            "pbrMetallicRoughness" : {
                "baseColorFactor" : [
                    0.004494462162256241,
                    0,
                    0.8000000715255737,
                    1
                ],
                "metallicFactor" : 0,
                "roughnessFactor" : 0.5
            }
        },
        {
            "doubleSided" : true,
            "name" : "yellow_rim",
            "pbrMetallicRoughness" : {
                "baseColorFactor" : [
                    0.8000000715255737,
                    0.6300600171089172,
                    0,
                    1
                ],
                "metallicFactor" : 0,
                "roughnessFactor" : 0.5
            }
        }
    ],
    "meshes" : [
        {
            "name" : "Text",
            "primitives" : [
                {
                    "attributes" : {
                        "POSITION" : 0,
                        "NORMAL" : 1
                    },
                    "indices" : 2,
                    "material" : 0
                }
            ]
        },
        {
            "name" : "Circle",
            "primitives" : [
                {
                    "attributes" : {
                        "POSITION" : 3,
                        "NORMAL" : 4,
                        "TEXCOORD_0" : 5
                    },
                    "indices" : 6,
                    "material" : 1
                },
                {
                    "attributes" : {
                        "POSITION" : 7,
                        "NORMAL" : 8,
                        "TEXCOORD_0" : 9
                    },
                    "indices" : 10,
                    "material" : 2
                }
            ]
        }
    ],
    "accessors" : [
        {
            "bufferView" : 0,
            "componentType" : 5126,
            "count" : 593,
            "max" : [
                0.21198394894599915,
                0.02500000223517418,
                0.25802046060562134
            ],
            "min" : [
                -0.212267205119133,
                -0.02499999850988388,
                -0.1717030555009842
            ],
            "type" : "VEC3"
        },
        {
            "bufferView" : 1,
            "componentType" : 5126,
            "count" : 593,
            "type" : "VEC3"
        },
        {
            "bufferView" : 2,
            "componentType" : 5123,
            "count" : 1476,
            "type" : "SCALAR"
        },
        {
            "bufferView" : 3,
            "componentType" : 5126,
            "count" : 64,
            "max" : [
                1,
                0,
                1
            ],
            "min" : [
                -1,
                -0.05259176716208458,
                -1
            ],
            "type" : "VEC3"
        },
        {
            "bufferView" : 4,
            "componentType" : 5126,
            "count" : 64,
            "type" : "VEC3"
        },
        {
            "bufferView" : 5,
            "componentType" : 5126,
            "count" : 64,
            "type" : "VEC2"
        },
        {
            "bufferView" : 6,
            "componentType" : 5123,
            "count" : 180,
            "type" : "SCALAR"
        },
        {
            "bufferView" : 7,
            "componentType" : 5126,
            "count" : 332,
            "max" : [
                1,
                0.04008090868592262,
                1
            ],
            "min" : [
                -1,
                -0.05259176716208458,
                -1
            ],
            "type" : "VEC3"
        },
        {
            "bufferView" : 8,
            "componentType" : 5126,
            "count" : 332,
            "type" : "VEC3"
        },
        {
            "bufferView" : 9,
            "componentType" : 5126,
            "count" : 332,
            "type" : "VEC2"
        },
        {
            "bufferView" : 10,
            "componentType" : 5123,
            "count" : 576,
            "type" : "SCALAR"
        }
    ],
    "bufferViews" : [
        {
            "buffer" : 0,
            "byteLength" : 7116,
            "byteOffset" : 0
        },
        {
            "buffer" : 0,
            "byteLength" : 7116,
            "byteOffset" : 7116
        },
        {
            "buffer" : 0,
            "byteLength" : 2952,
            "byteOffset" : 14232
        },
        {
            "buffer" : 0,
            "byteLength" : 768,
            "byteOffset" : 17184
        },
        {
            "buffer" : 0,
            "byteLength" : 768,
            "byteOffset" : 17952
        },
        {
            "buffer" : 0,
            "byteLength" : 512,
            "byteOffset" : 18720
        },
        {
            "buffer" : 0,
            "byteLength" : 360,
            "byteOffset" : 19232
        },
        {
            "buffer" : 0,
            "byteLength" : 3984,
            "byteOffset" : 19592
        },
        {
            "buffer" : 0,
            "byteLength" : 3984,
            "byteOffset" : 23576
        },
        {
            "buffer" : 0,
            "byteLength" : 2656,
            "byteOffset" : 27560
        },
        {
            "buffer" : 0,
            "byteLength" : 1152,
            "byteOffset" : 30216
        }
    ],
    "buffers" : [
        {
            "byteLength" : 31368,
            "uri" : "data:application/octet-stream;base64,"
        }
    ]
}
