{
    "asset" : {
        "generator" : "Khronos glTF Blender I/O v1.3.48",
        "version" : "2.0"
    },
    "scene" : 0,
    "scenes" : [
        {
            "name" : "Scene",
            "nodes" : [
                0,
                1,
                2,
                3,
                4,
                5,
                6
            ]
        }
    ],
    "nodes" : [
        {
            "name" : "Light",
            "rotation" : [
                0.16907575726509094,
                0.7558803558349609,
                -0.27217137813568115,
                0.570947527885437
            ],
            "translation" : [
                4.076245307922363,
                5.903861999511719,
                -1.0054539442062378
            ]
        },
        {
            "name" : "Camera",
            "rotation" : [
                0.483536034822464,
                0.33687159419059753,
                -0.20870360732078552,
                0.7804827094078064
            ],
            "translation" : [
                7.358891487121582,
                4.958309173583984,
                6.925790786743164
            ]
        },
        {
            "mesh" : 0,
            "name" : "Circle"
        },
        {
            "mesh" : 1,
            "name" : "Circle.001"
        },
        {
            "mesh" : 2,
            "name" : "Circle.002"
        },
        {
            "mesh" : 3,
            "name" : "Circle.003"
        },
        {
            "mesh" : 4,
            "name" : "Circle.004",
            "translation" : [
                0,
                -0.019999999552965164,
                0
            ]
        }
    ],
    "animations" : [
        {
            "channels" : [
                {
                    "sampler" : 0,
                    "target" : {
                        "node" : 2,
                        "path" : "rotation"
                    }
                }
            ],
            "name" : "CircleAction",
            "samplers" : [
                {
                    "input" : 20,
                    "interpolation" : "LINEAR",
                    "output" : 21
                }
            ]
        },
        {
            "channels" : [
                {
                    "sampler" : 0,
                    "target" : {
                        "node" : 3,
                        "path" : "rotation"
                    }
                }
            ],
            "name" : "Circle.001Action",
            "samplers" : [
                {
                    "input" : 22,
                    "interpolation" : "LINEAR",
                    "output" : 23
                }
            ]
        },
        {
            "channels" : [
                {
                    "sampler" : 0,
                    "target" : {
                        "node" : 4,
                        "path" : "rotation"
                    }
                }
            ],
            "name" : "Circle.002Action",
            "samplers" : [
                {
                    "input" : 20,
                    "interpolation" : "LINEAR",
                    "output" : 24
                }
            ]
        },
        {
            "channels" : [
                {
                    "sampler" : 0,
                    "target" : {
                        "node" : 5,
                        "path" : "rotation"
                    }
                }
            ],
            "name" : "Circle.003Action",
            "samplers" : [
                {
                    "input" : 20,
                    "interpolation" : "LINEAR",
                    "output" : 25
                }
            ]
        }
    ],
    "meshes" : [
        {
            "name" : "Circle.001",
            "primitives" : [
                {
                    "attributes" : {
                        "POSITION" : 0,
                        "NORMAL" : 1,
                        "TEXCOORD_0" : 2
                    },
                    "indices" : 3
                }
            ]
        },
        {
            "name" : "Circle.003",
            "primitives" : [
                {
                    "attributes" : {
                        "POSITION" : 4,
                        "NORMAL" : 5,
                        "TEXCOORD_0" : 6
                    },
                    "indices" : 7
                }
            ]
        },
        {
            "name" : "Circle.004",
            "primitives" : [
                {
                    "attributes" : {
                        "POSITION" : 8,
                        "NORMAL" : 9,
                        "TEXCOORD_0" : 10
                    },
                    "indices" : 11
                }
            ]
        },
        {
            "name" : "Circle.000",
            "primitives" : [
                {
                    "attributes" : {
                        "POSITION" : 12,
                        "NORMAL" : 13,
                        "TEXCOORD_0" : 14
                    },
                    "indices" : 15
                }
            ]
        },
        {
            "name" : "Circle",
            "primitives" : [
                {
                    "attributes" : {
                        "POSITION" : 16,
                        "NORMAL" : 17,
                        "TEXCOORD_0" : 18
                    },
                    "indices" : 19
                }
            ]
        }
    ],
    "accessors" : [
        {
            "bufferView" : 0,
            "componentType" : 5126,
            "count" : 139,
            "max" : [
                1.112188458442688,
                5.820766091346741e-11,
                1.1068329811096191
            ],
            "min" : [
                -1.112188696861267,
                -8.731149137020111e-11,
                -1.1121885776519775
            ],
            "type" : "VEC3"
        },
        {
            "bufferView" : 1,
            "componentType" : 5126,
            "count" : 139,
            "type" : "VEC3"
        },
        {
            "bufferView" : 2,
            "componentType" : 5126,
            "count" : 139,
            "type" : "VEC2"
        },
        {
            "bufferView" : 3,
            "componentType" : 5123,
            "count" : 291,
            "type" : "SCALAR"
        },
        {
            "bufferView" : 4,
            "componentType" : 5126,
            "count" : 137,
            "max" : [
                1.223913311958313,
                0,
                1.223913550376892
            ],
            "min" : [
                -1.2239136695861816,
                -0.0068452013656497,
                -1.223913550376892
            ],
            "type" : "VEC3"
        },
        {
            "bufferView" : 5,
            "componentType" : 5126,
            "count" : 137,
            "type" : "VEC3"
        },
        {
            "bufferView" : 6,
            "componentType" : 5126,
            "count" : 137,
            "type" : "VEC2"
        },
        {
            "bufferView" : 7,
            "componentType" : 5123,
            "count" : 297,
            "type" : "SCALAR"
        },
        {
            "bufferView" : 8,
            "componentType" : 5126,
            "count" : 135,
            "max" : [
                1.33494234085083,
                0,
                1.3349424600601196
            ],
            "min" : [
                -1.3349426984786987,
                0,
                -1.3349425792694092
            ],
            "type" : "VEC3"
        },
        {
            "bufferView" : 9,
            "componentType" : 5126,
            "count" : 135,
            "type" : "VEC3"
        },
        {
            "bufferView" : 10,
            "componentType" : 5126,
            "count" : 135,
            "type" : "VEC2"
        },
        {
            "bufferView" : 11,
            "componentType" : 5123,
            "count" : 279,
            "type" : "SCALAR"
        },
        {
            "bufferView" : 12,
            "componentType" : 5126,
            "count" : 154,
            "max" : [
                1.4472074508666992,
                0,
                1.4472075700759888
            ],
            "min" : [
                -1.4472079277038574,
                0,
                -1.4472076892852783
            ],
            "type" : "VEC3"
        },
        {
            "bufferView" : 13,
            "componentType" : 5126,
            "count" : 154,
            "type" : "VEC3"
        },
        {
            "bufferView" : 14,
            "componentType" : 5126,
            "count" : 154,
            "type" : "VEC2"
        },
        {
            "bufferView" : 15,
            "componentType" : 5123,
            "count" : 330,
            "type" : "SCALAR"
        },
        {
            "bufferView" : 16,
            "componentType" : 5126,
            "count" : 80,
            "max" : [
                1.4789807796478271,
                0,
                1.4789808988571167
            ],
            "min" : [
                -1.4789807796478271,
                0,
                -1.478980541229248
            ],
            "type" : "VEC3"
        },
        {
            "bufferView" : 17,
            "componentType" : 5126,
            "count" : 80,
            "type" : "VEC3"
        },
        {
            "bufferView" : 18,
            "componentType" : 5126,
            "count" : 80,
            "type" : "VEC2"
        },
        {
            "bufferView" : 19,
            "componentType" : 5123,
            "count" : 192,
            "type" : "SCALAR"
        },
        {
            "bufferView" : 20,
            "componentType" : 5126,
            "count" : 50,
            "max" : [
                2.0833333333333335
            ],
            "min" : [
                0.041666666666666664
            ],
            "type" : "SCALAR"
        },
        {
            "bufferView" : 21,
            "componentType" : 5126,
            "count" : 50,
            "type" : "VEC4"
        },
        {
            "bufferView" : 22,
            "componentType" : 5126,
            "count" : 51,
            "max" : [
                2.0833333333333335
            ],
            "min" : [
                0
            ],
            "type" : "SCALAR"
        },
        {
            "bufferView" : 23,
            "componentType" : 5126,
            "count" : 51,
            "type" : "VEC4"
        },
        {
            "bufferView" : 24,
            "componentType" : 5126,
            "count" : 50,
            "type" : "VEC4"
        },
        {
            "bufferView" : 25,
            "componentType" : 5126,
            "count" : 50,
            "type" : "VEC4"
        }
    ],
    "bufferViews" : [
        {
            "buffer" : 0,
            "byteLength" : 1668,
            "byteOffset" : 0
        },
        {
            "buffer" : 0,
            "byteLength" : 1668,
            "byteOffset" : 1668
        },
        {
            "buffer" : 0,
            "byteLength" : 1112,
            "byteOffset" : 3336
        },
        {
            "buffer" : 0,
            "byteLength" : 582,
            "byteOffset" : 4448
        },
        {
            "buffer" : 0,
            "byteLength" : 1644,
            "byteOffset" : 5032
        },
        {
            "buffer" : 0,
            "byteLength" : 1644,
            "byteOffset" : 6676
        },
        {
            "buffer" : 0,
            "byteLength" : 1096,
            "byteOffset" : 8320
        },
        {
            "buffer" : 0,
            "byteLength" : 594,
            "byteOffset" : 9416
        },
        {
            "buffer" : 0,
            "byteLength" : 1620,
            "byteOffset" : 10012
        },
        {
            "buffer" : 0,
            "byteLength" : 1620,
            "byteOffset" : 11632
        },
        {
            "buffer" : 0,
            "byteLength" : 1080,
            "byteOffset" : 13252
        },
        {
            "buffer" : 0,
            "byteLength" : 558,
            "byteOffset" : 14332
        },
        {
            "buffer" : 0,
            "byteLength" : 1848,
            "byteOffset" : 14892
        },
        {
            "buffer" : 0,
            "byteLength" : 1848,
            "byteOffset" : 16740
        },
        {
            "buffer" : 0,
            "byteLength" : 1232,
            "byteOffset" : 18588
        },
        {
            "buffer" : 0,
            "byteLength" : 660,
            "byteOffset" : 19820
        },
        {
            "buffer" : 0,
            "byteLength" : 960,
            "byteOffset" : 20480
        },
        {
            "buffer" : 0,
            "byteLength" : 960,
            "byteOffset" : 21440
        },
        {
            "buffer" : 0,
            "byteLength" : 640,
            "byteOffset" : 22400
        },
        {
            "buffer" : 0,
            "byteLength" : 384,
            "byteOffset" : 23040
        },
        {
            "buffer" : 0,
            "byteLength" : 200,
            "byteOffset" : 23424
        },
        {
            "buffer" : 0,
            "byteLength" : 800,
            "byteOffset" : 23624
        },
        {
            "buffer" : 0,
            "byteLength" : 204,
            "byteOffset" : 24424
        },
        {
            "buffer" : 0,
            "byteLength" : 816,
            "byteOffset" : 24628
        },
        {
            "buffer" : 0,
            "byteLength" : 800,
            "byteOffset" : 25444
        },
        {
            "buffer" : 0,
            "byteLength" : 800,
            "byteOffset" : 26244
        }
    ],
    "buffers" : [
        {
            "byteLength" : 27044,
            "uri" : "data:application/octet-stream;base64,"
        }
    ]
}
