{
    "asset" : {
        "generator" : "Khronos glTF Blender I/O v1.0.5",
        "version" : "2.0"
    },
    "scene" : 0,
    "scenes" : [
        {
            "name" : "Scene",
            "nodes" : [
                0,
                1,
                2,
                3
            ]
        }
    ],
    "nodes" : [
        {
            "mesh" : 0,
            "name" : "Circle"
        },
        {
            "mesh" : 1,
            "name" : "Circle.001"
        },
        {
            "mesh" : 2,
            "name" : "Circle.002"
        },
        {
            "mesh" : 3,
            "name" : "Circle.003"
        }
    ],
    "animations" : [
        {
            "channels" : [
                {
                    "sampler" : 0,
                    "target" : {
                        "node" : 0,
                        "path" : "rotation"
                    }
                }
            ],
            "name" : "CircleAction",
            "samplers" : [
                {
                    "input" : 16,
                    "interpolation" : "LINEAR",
                    "output" : 17
                }
            ]
        },
        {
            "channels" : [
                {
                    "sampler" : 0,
                    "target" : {
                        "node" : 1,
                        "path" : "rotation"
                    }
                }
            ],
            "name" : "Circle.001Action",
            "samplers" : [
                {
                    "input" : 18,
                    "interpolation" : "LINEAR",
                    "output" : 19
                }
            ]
        },
        {
            "channels" : [
                {
                    "sampler" : 0,
                    "target" : {
                        "node" : 2,
                        "path" : "rotation"
                    }
                }
            ],
            "name" : "Circle.002Action",
            "samplers" : [
                {
                    "input" : 16,
                    "interpolation" : "LINEAR",
                    "output" : 20
                }
            ]
        },
        {
            "channels" : [
                {
                    "sampler" : 0,
                    "target" : {
                        "node" : 3,
                        "path" : "rotation"
                    }
                }
            ],
            "name" : "Circle.003Action",
            "samplers" : [
                {
                    "input" : 16,
                    "interpolation" : "LINEAR",
                    "output" : 21
                }
            ]
        }
    ],
    "meshes" : [
        {
            "name" : "Circle.001",
            "primitives" : [
                {
                    "attributes" : {
                        "POSITION" : 0,
                        "NORMAL" : 1,
                        "TEXCOORD_0" : 2
                    },
                    "indices" : 3
                }
            ]
        },
        {
            "name" : "Circle.003",
            "primitives" : [
                {
                    "attributes" : {
                        "POSITION" : 4,
                        "NORMAL" : 5,
                        "TEXCOORD_0" : 6
                    },
                    "indices" : 7
                }
            ]
        },
        {
            "name" : "Circle.004",
            "primitives" : [
                {
                    "attributes" : {
                        "POSITION" : 8,
                        "NORMAL" : 9,
                        "TEXCOORD_0" : 10
                    },
                    "indices" : 11
                }
            ]
        },
        {
            "name" : "Circle.000",
            "primitives" : [
                {
                    "attributes" : {
                        "POSITION" : 12,
                        "NORMAL" : 13,
                        "TEXCOORD_0" : 14
                    },
                    "indices" : 15
                }
            ]
        }
    ],
    "accessors" : [
        {
            "bufferView" : 0,
            "componentType" : 5126,
            "count" : 122,
            "max" : [
                1.112188458442688,
                2.9103830456733704e-11,
                1.1068329811096191
            ],
            "min" : [
                -1.112188696861267,
                -8.731149137020111e-11,
                -1.1121885776519775
            ],
            "type" : "VEC3"
        },
        {
            "bufferView" : 1,
            "componentType" : 5126,
            "count" : 122,
            "type" : "VEC3"
        },
        {
            "bufferView" : 2,
            "componentType" : 5126,
            "count" : 122,
            "type" : "VEC2"
        },
        {
            "bufferView" : 3,
            "componentType" : 5123,
            "count" : 264,
            "type" : "SCALAR"
        },
        {
            "bufferView" : 4,
            "componentType" : 5126,
            "count" : 132,
            "max" : [
                1.223913311958313,
                0,
                1.223913550376892
            ],
            "min" : [
                -1.2239136695861816,
                0,
                -1.223913550376892
            ],
            "type" : "VEC3"
        },
        {
            "bufferView" : 5,
            "componentType" : 5126,
            "count" : 132,
            "type" : "VEC3"
        },
        {
            "bufferView" : 6,
            "componentType" : 5126,
            "count" : 132,
            "type" : "VEC2"
        },
        {
            "bufferView" : 7,
            "componentType" : 5123,
            "count" : 294,
            "type" : "SCALAR"
        },
        {
            "bufferView" : 8,
            "componentType" : 5126,
            "count" : 142,
            "max" : [
                1.33494234085083,
                0,
                1.3349424600601196
            ],
            "min" : [
                -1.3349426984786987,
                0,
                -1.3349425792694092
            ],
            "type" : "VEC3"
        },
        {
            "bufferView" : 9,
            "componentType" : 5126,
            "count" : 142,
            "type" : "VEC3"
        },
        {
            "bufferView" : 10,
            "componentType" : 5126,
            "count" : 142,
            "type" : "VEC2"
        },
        {
            "bufferView" : 11,
            "componentType" : 5123,
            "count" : 288,
            "type" : "SCALAR"
        },
        {
            "bufferView" : 12,
            "componentType" : 5126,
            "count" : 150,
            "max" : [
                1.4472074508666992,
                0,
                1.4472075700759888
            ],
            "min" : [
                -1.4472079277038574,
                0,
                -1.4472076892852783
            ],
            "type" : "VEC3"
        },
        {
            "bufferView" : 13,
            "componentType" : 5126,
            "count" : 150,
            "type" : "VEC3"
        },
        {
            "bufferView" : 14,
            "componentType" : 5126,
            "count" : 150,
            "type" : "VEC2"
        },
        {
            "bufferView" : 15,
            "componentType" : 5123,
            "count" : 300,
            "type" : "SCALAR"
        },
        {
            "bufferView" : 16,
            "componentType" : 5126,
            "count" : 50,
            "max" : [
                2.0833333333333335
            ],
            "min" : [
                0.041666666666666664
            ],
            "type" : "SCALAR"
        },
        {
            "bufferView" : 17,
            "componentType" : 5126,
            "count" : 50,
            "type" : "VEC4"
        },
        {
            "bufferView" : 18,
            "componentType" : 5126,
            "count" : 51,
            "max" : [
                2.0833333333333335
            ],
            "min" : [
                0
            ],
            "type" : "SCALAR"
        },
        {
            "bufferView" : 19,
            "componentType" : 5126,
            "count" : 51,
            "type" : "VEC4"
        },
        {
            "bufferView" : 20,
            "componentType" : 5126,
            "count" : 50,
            "type" : "VEC4"
        },
        {
            "bufferView" : 21,
            "componentType" : 5126,
            "count" : 50,
            "type" : "VEC4"
        }
    ],
    "bufferViews" : [
        {
            "buffer" : 0,
            "byteLength" : 1464,
            "byteOffset" : 0
        },
        {
            "buffer" : 0,
            "byteLength" : 1464,
            "byteOffset" : 1464
        },
        {
            "buffer" : 0,
            "byteLength" : 976,
            "byteOffset" : 2928
        },
        {
            "buffer" : 0,
            "byteLength" : 528,
            "byteOffset" : 3904
        },
        {
            "buffer" : 0,
            "byteLength" : 1584,
            "byteOffset" : 4432
        },
        {
            "buffer" : 0,
            "byteLength" : 1584,
            "byteOffset" : 6016
        },
        {
            "buffer" : 0,
            "byteLength" : 1056,
            "byteOffset" : 7600
        },
        {
            "buffer" : 0,
            "byteLength" : 588,
            "byteOffset" : 8656
        },
        {
            "buffer" : 0,
            "byteLength" : 1704,
            "byteOffset" : 9244
        },
        {
            "buffer" : 0,
            "byteLength" : 1704,
            "byteOffset" : 10948
        },
        {
            "buffer" : 0,
            "byteLength" : 1136,
            "byteOffset" : 12652
        },
        {
            "buffer" : 0,
            "byteLength" : 576,
            "byteOffset" : 13788
        },
        {
            "buffer" : 0,
            "byteLength" : 1800,
            "byteOffset" : 14364
        },
        {
            "buffer" : 0,
            "byteLength" : 1800,
            "byteOffset" : 16164
        },
        {
            "buffer" : 0,
            "byteLength" : 1200,
            "byteOffset" : 17964
        },
        {
            "buffer" : 0,
            "byteLength" : 600,
            "byteOffset" : 19164
        },
        {
            "buffer" : 0,
            "byteLength" : 200,
            "byteOffset" : 19764
        },
        {
            "buffer" : 0,
            "byteLength" : 800,
            "byteOffset" : 19964
        },
        {
            "buffer" : 0,
            "byteLength" : 204,
            "byteOffset" : 20764
        },
        {
            "buffer" : 0,
            "byteLength" : 816,
            "byteOffset" : 20968
        },
        {
            "buffer" : 0,
            "byteLength" : 800,
            "byteOffset" : 21784
        },
        {
            "buffer" : 0,
            "byteLength" : 800,
            "byteOffset" : 22584
        }
    ],
    "buffers" : [
        {
            "byteLength" : 23384,
            "uri" : "data:application/octet-stream;base64,"
        }
    ]
}
