{
    "asset" : {
        "generator" : "Khronos glTF Blender I/O v1.2.75",
        "version" : "2.0"
    },
    "scene" : 0,
    "scenes" : [
        {
            "name" : "Scene",
            "nodes" : [
                0,
                1,
                2
            ]
        }
    ],
    "nodes" : [
        {
            "mesh" : 0,
            "name" : "Cube"
        },
        {
            "mesh" : 1,
            "name" : "Cube.001",
            "scale" : [
                0.7262239456176758,
                0.37542980909347534,
                0.29337263107299805
            ],
            "translation" : [
                0,
                0.11259718239307404,
                0.785046398639679
            ]
        },
        {
            "mesh" : 2,
            "name" : "Cube.002",
            "scale" : [
                -0.14251816272735596,
                -0.05526554584503174,
                -0.05526554584503174
            ],
            "translation" : [
                0,
                -0.16402322053909302,
                0
            ]
        }
    ],
    "materials" : [
        {
            "doubleSided" : true,
            "emissiveFactor" : [
                0,
                0,
                0
            ],
            "name" : "Material",
            "pbrMetallicRoughness" : {
                "baseColorFactor" : [
                    0.800000011920929,
                    0.800000011920929,
                    0.800000011920929,
                    1
                ],
                "metallicFactor" : 0,
                "roughnessFactor" : 0.4000000059604645
            }
        }
    ],
    "meshes" : [
        {
            "name" : "Cube",
            "primitives" : [
                {
                    "attributes" : {
                        "POSITION" : 0,
                        "NORMAL" : 1,
                        "TEXCOORD_0" : 2
                    },
                    "indices" : 3,
                    "material" : 0
                }
            ]
        },
        {
            "name" : "Cube.001",
            "primitives" : [
                {
                    "attributes" : {
                        "POSITION" : 4,
                        "NORMAL" : 5,
                        "TEXCOORD_0" : 6
                    },
                    "indices" : 7
                }
            ]
        },
        {
            "name" : "Cube.002",
            "primitives" : [
                {
                    "attributes" : {
                        "POSITION" : 8,
                        "NORMAL" : 9,
                        "TEXCOORD_0" : 10
                    },
                    "indices" : 11
                }
            ]
        }
    ],
    "accessors" : [
        {
            "bufferView" : 0,
            "componentType" : 5126,
            "count" : 384,
            "max" : [
                0.09275029599666595,
                0.10385946929454803,
                0.10661581158638
            ],
            "min" : [
                -0.09275025129318237,
                -0.0955420657992363,
                -0.09813754260540009
            ],
            "type" : "VEC3"
        },
        {
            "bufferView" : 1,
            "componentType" : 5126,
            "count" : 384,
            "type" : "VEC3"
        },
        {
            "bufferView" : 2,
            "componentType" : 5126,
            "count" : 384,
            "type" : "VEC2"
        },
        {
            "bufferView" : 3,
            "componentType" : 5123,
            "count" : 576,
            "type" : "SCALAR"
        },
        {
            "bufferView" : 4,
            "componentType" : 5126,
            "count" : 96,
            "max" : [
                0.09827828407287598,
                -0.10195031762123108,
                -2.7988569736480713
            ],
            "min" : [
                -0.09827828407287598,
                -0.29850688576698303,
                -2.9954135417938232
            ],
            "type" : "VEC3"
        },
        {
            "bufferView" : 5,
            "componentType" : 5126,
            "count" : 96,
            "type" : "VEC3"
        },
        {
            "bufferView" : 6,
            "componentType" : 5126,
            "count" : 96,
            "type" : "VEC2"
        },
        {
            "bufferView" : 7,
            "componentType" : 5123,
            "count" : 132,
            "type" : "SCALAR"
        },
        {
            "bufferView" : 8,
            "componentType" : 5126,
            "count" : 384,
            "max" : [
                1.1290717124938965,
                2.1131229400634766,
                0.9665579199790955
            ],
            "min" : [
                -1.1290717124938965,
                -0.8025698065757751,
                -0.9665579199790955
            ],
            "type" : "VEC3"
        },
        {
            "bufferView" : 9,
            "componentType" : 5126,
            "count" : 384,
            "type" : "VEC3"
        },
        {
            "bufferView" : 10,
            "componentType" : 5126,
            "count" : 384,
            "type" : "VEC2"
        },
        {
            "bufferView" : 11,
            "componentType" : 5123,
            "count" : 576,
            "type" : "SCALAR"
        }
    ],
    "bufferViews" : [
        {
            "buffer" : 0,
            "byteLength" : 4608,
            "byteOffset" : 0
        },
        {
            "buffer" : 0,
            "byteLength" : 4608,
            "byteOffset" : 4608
        },
        {
            "buffer" : 0,
            "byteLength" : 3072,
            "byteOffset" : 9216
        },
        {
            "buffer" : 0,
            "byteLength" : 1152,
            "byteOffset" : 12288
        },
        {
            "buffer" : 0,
            "byteLength" : 1152,
            "byteOffset" : 13440
        },
        {
            "buffer" : 0,
            "byteLength" : 1152,
            "byteOffset" : 14592
        },
        {
            "buffer" : 0,
            "byteLength" : 768,
            "byteOffset" : 15744
        },
        {
            "buffer" : 0,
            "byteLength" : 264,
            "byteOffset" : 16512
        },
        {
            "buffer" : 0,
            "byteLength" : 4608,
            "byteOffset" : 16776
        },
        {
            "buffer" : 0,
            "byteLength" : 4608,
            "byteOffset" : 21384
        },
        {
            "buffer" : 0,
            "byteLength" : 3072,
            "byteOffset" : 25992
        },
        {
            "buffer" : 0,
            "byteLength" : 1152,
            "byteOffset" : 29064
        }
    ],
    "buffers" : [
        {
            "byteLength" : 30216,
            "uri" : "data:application/octet-stream;base64,"
        }
    ]
}
