{
    "asset" : {
        "generator" : "Khronos glTF Blender I/O v1.3.48",
        "version" : "2.0"
    },
    "scene" : 0,
    "scenes" : [
        {
            "name" : "Scene",
            "nodes" : [
                0
            ]
        }
    ],
    "nodes" : [
        {
            "mesh" : 0,
            "name" : "Cube"
        }
    ],
    "materials" : [
        {
            "doubleSided" : true,
            "name" : "TriSideYellow",
            "pbrMetallicRoughness" : {}
        },
        {
            "doubleSided" : true,
            "name" : "TriSideBlue",
            "pbrMetallicRoughness" : {}
        },
        {
            "doubleSided" : true,
            "name" : "TriSideWhite",
            "pbrMetallicRoughness" : {}
        },
        {
            "doubleSided" : true,
            "name" : "TriSideRed",
            "pbrMetallicRoughness" : {}
        }
    ],
    "meshes" : [
        {
            "name" : "Cube",
            "primitives" : [
                {
                    "attributes" : {
                        "POSITION" : 0,
                        "NORMAL" : 1,
                        "TEXCOORD_0" : 2
                    },
                    "indices" : 3,
                    "material" : 0
                },
                {
                    "attributes" : {
                        "POSITION" : 4,
                        "NORMAL" : 5,
                        "TEXCOORD_0" : 6
                    },
                    "indices" : 3,
                    "material" : 1
                },
                {
                    "attributes" : {
                        "POSITION" : 7,
                        "NORMAL" : 8,
                        "TEXCOORD_0" : 9
                    },
                    "indices" : 3,
                    "material" : 2
                },
                {
                    "attributes" : {
                        "POSITION" : 10,
                        "NORMAL" : 11,
                        "TEXCOORD_0" : 12
                    },
                    "indices" : 3,
                    "material" : 3
                }
            ]
        }
    ],
    "accessors" : [
        {
            "bufferView" : 0,
            "componentType" : 5126,
            "count" : 3,
            "max" : [
                0.920527458190918,
                0.7851061224937439,
                0.6873748302459717
            ],
            "min" : [
                -0.437469482421875,
                -0.2617020606994629,
                0.0031468868255615234
            ],
            "type" : "VEC3"
        },
        {
            "bufferView" : 1,
            "componentType" : 5126,
            "count" : 3,
            "type" : "VEC3"
        },
        {
            "bufferView" : 2,
            "componentType" : 5126,
            "count" : 3,
            "type" : "VEC2"
        },
        {
            "bufferView" : 3,
            "componentType" : 5123,
            "count" : 3,
            "type" : "SCALAR"
        },
        {
            "bufferView" : 4,
            "componentType" : 5126,
            "count" : 3,
            "max" : [
                0.014010906219482422,
                0.7851061224937439,
                0.6873748302459717
            ],
            "min" : [
                -0.49706876277923584,
                -0.2617020606994629,
                -0.7841357588768005
            ],
            "type" : "VEC3"
        },
        {
            "bufferView" : 5,
            "componentType" : 5126,
            "count" : 3,
            "type" : "VEC3"
        },
        {
            "bufferView" : 6,
            "componentType" : 5126,
            "count" : 3,
            "type" : "VEC2"
        },
        {
            "bufferView" : 7,
            "componentType" : 5126,
            "count" : 3,
            "max" : [
                0.920527458190918,
                -0.2617020606994629,
                0.6873748302459717
            ],
            "min" : [
                -0.49706876277923584,
                -0.2617020606994629,
                -0.7841357588768005
            ],
            "type" : "VEC3"
        },
        {
            "bufferView" : 8,
            "componentType" : 5126,
            "count" : 3,
            "type" : "VEC3"
        },
        {
            "bufferView" : 9,
            "componentType" : 5126,
            "count" : 3,
            "type" : "VEC2"
        },
        {
            "bufferView" : 10,
            "componentType" : 5126,
            "count" : 3,
            "max" : [
                0.920527458190918,
                0.7851061224937439,
                0.09361398220062256
            ],
            "min" : [
                -0.49706876277923584,
                -0.2617020606994629,
                -0.7841357588768005
            ],
            "type" : "VEC3"
        },
        {
            "bufferView" : 11,
            "componentType" : 5126,
            "count" : 3,
            "type" : "VEC3"
        },
        {
            "bufferView" : 12,
            "componentType" : 5126,
            "count" : 3,
            "type" : "VEC2"
        }
    ],
    "bufferViews" : [
        {
            "buffer" : 0,
            "byteLength" : 36,
            "byteOffset" : 0
        },
        {
            "buffer" : 0,
            "byteLength" : 36,
            "byteOffset" : 36
        },
        {
            "buffer" : 0,
            "byteLength" : 24,
            "byteOffset" : 72
        },
        {
            "buffer" : 0,
            "byteLength" : 6,
            "byteOffset" : 96
        },
        {
            "buffer" : 0,
            "byteLength" : 36,
            "byteOffset" : 104
        },
        {
            "buffer" : 0,
            "byteLength" : 36,
            "byteOffset" : 140
        },
        {
            "buffer" : 0,
            "byteLength" : 24,
            "byteOffset" : 176
        },
        {
            "buffer" : 0,
            "byteLength" : 36,
            "byteOffset" : 200
        },
        {
            "buffer" : 0,
            "byteLength" : 36,
            "byteOffset" : 236
        },
        {
            "buffer" : 0,
            "byteLength" : 24,
            "byteOffset" : 272
        },
        {
            "buffer" : 0,
            "byteLength" : 36,
            "byteOffset" : 296
        },
        {
            "buffer" : 0,
            "byteLength" : 36,
            "byteOffset" : 332
        },
        {
            "buffer" : 0,
            "byteLength" : 24,
            "byteOffset" : 368
        }
    ],
    "buffers" : [
        {
            "byteLength" : 392,
            "uri" : "data:application/octet-stream;base64,"
        }
    ]
}
