{
    "asset" : {
        "generator" : "Khronos glTF Blender I/O v1.2.75",
        "version" : "2.0"
    },
    "scene" : 0,
    "scenes" : [
        {
            "name" : "Scene",
            "nodes" : [
                0,
                1,
                2,
                3
            ]
        }
    ],
    "nodes" : [
        {
            "mesh" : 0,
            "name" : "runx3",
            "translation" : [
                2.023505449295044,
                0,
                -1.043791651725769
            ]
        },
        {
            "mesh" : 1,
            "name" : "hyperspeed",
            "translation" : [
                0.6764137744903564,
                0,
                -2.021691083908081
            ]
        },
        {
            "mesh" : 2,
            "name" : "runforpoints",
            "translation" : [
                0,
                0,
                -3.025623321533203
            ]
        },
        {
            "mesh" : 3,
            "name" : "runx2",
            "translation" : [
                2.0216543674468994,
                0,
                0
            ]
        }
    ],
    "meshes" : [
        {
            "name" : "Text",
            "primitives" : [
                {
                    "attributes" : {
                        "POSITION" : 0,
                        "NORMAL" : 1,
                        "TEXCOORD_0" : 2
                    },
                    "indices" : 3
                }
            ]
        },
        {
            "name" : "Text.001",
            "primitives" : [
                {
                    "attributes" : {
                        "POSITION" : 4,
                        "NORMAL" : 5,
                        "TEXCOORD_0" : 6
                    },
                    "indices" : 7
                }
            ]
        },
        {
            "name" : "Text.002",
            "primitives" : [
                {
                    "attributes" : {
                        "POSITION" : 8,
                        "NORMAL" : 9,
                        "TEXCOORD_0" : 10
                    },
                    "indices" : 11
                }
            ]
        },
        {
            "name" : "Text.003",
            "primitives" : [
                {
                    "attributes" : {
                        "POSITION" : 12,
                        "NORMAL" : 13,
                        "TEXCOORD_0" : 14
                    },
                    "indices" : 15
                }
            ]
        }
    ],
    "accessors" : [
        {
            "bufferView" : 0,
            "componentType" : 5126,
            "count" : 105,
            "max" : [
                2.9476563930511475,
                0,
                1
            ],
            "min" : [
                0.04570312425494194,
                0,
                0.48164063692092896
            ],
            "type" : "VEC3"
        },
        {
            "bufferView" : 1,
            "componentType" : 5126,
            "count" : 105,
            "type" : "VEC3"
        },
        {
            "bufferView" : 2,
            "componentType" : 5126,
            "count" : 105,
            "type" : "VEC2"
        },
        {
            "bufferView" : 3,
            "componentType" : 5123,
            "count" : 186,
            "type" : "SCALAR"
        },
        {
            "bufferView" : 4,
            "componentType" : 5126,
            "count" : 219,
            "max" : [
                5.600390434265137,
                0,
                2
            ],
            "min" : [
                0.04570312425494194,
                0,
                1.4816405773162842
            ],
            "type" : "VEC3"
        },
        {
            "bufferView" : 5,
            "componentType" : 5126,
            "count" : 219,
            "type" : "VEC3"
        },
        {
            "bufferView" : 6,
            "componentType" : 5126,
            "count" : 219,
            "type" : "VEC2"
        },
        {
            "bufferView" : 7,
            "componentType" : 5123,
            "count" : 375,
            "type" : "SCALAR"
        },
        {
            "bufferView" : 8,
            "componentType" : 5126,
            "count" : 257,
            "max" : [
                6.95078182220459,
                0,
                3
            ],
            "min" : [
                0.04570312425494194,
                0,
                2.481640577316284
            ],
            "type" : "VEC3"
        },
        {
            "bufferView" : 9,
            "componentType" : 5126,
            "count" : 257,
            "type" : "VEC3"
        },
        {
            "bufferView" : 10,
            "componentType" : 5126,
            "count" : 257,
            "type" : "VEC2"
        },
        {
            "bufferView" : 11,
            "componentType" : 5123,
            "count" : 429,
            "type" : "SCALAR"
        },
        {
            "bufferView" : 12,
            "componentType" : 5126,
            "count" : 97,
            "max" : [
                2.935546875,
                0,
                0
            ],
            "min" : [
                0.04570312425494194,
                0,
                -0.518359363079071
            ],
            "type" : "VEC3"
        },
        {
            "bufferView" : 13,
            "componentType" : 5126,
            "count" : 97,
            "type" : "VEC3"
        },
        {
            "bufferView" : 14,
            "componentType" : 5126,
            "count" : 97,
            "type" : "VEC2"
        },
        {
            "bufferView" : 15,
            "componentType" : 5123,
            "count" : 171,
            "type" : "SCALAR"
        }
    ],
    "bufferViews" : [
        {
            "buffer" : 0,
            "byteLength" : 1260,
            "byteOffset" : 0
        },
        {
            "buffer" : 0,
            "byteLength" : 1260,
            "byteOffset" : 1260
        },
        {
            "buffer" : 0,
            "byteLength" : 840,
            "byteOffset" : 2520
        },
        {
            "buffer" : 0,
            "byteLength" : 372,
            "byteOffset" : 3360
        },
        {
            "buffer" : 0,
            "byteLength" : 2628,
            "byteOffset" : 3732
        },
        {
            "buffer" : 0,
            "byteLength" : 2628,
            "byteOffset" : 6360
        },
        {
            "buffer" : 0,
            "byteLength" : 1752,
            "byteOffset" : 8988
        },
        {
            "buffer" : 0,
            "byteLength" : 750,
            "byteOffset" : 10740
        },
        {
            "buffer" : 0,
            "byteLength" : 3084,
            "byteOffset" : 11492
        },
        {
            "buffer" : 0,
            "byteLength" : 3084,
            "byteOffset" : 14576
        },
        {
            "buffer" : 0,
            "byteLength" : 2056,
            "byteOffset" : 17660
        },
        {
            "buffer" : 0,
            "byteLength" : 858,
            "byteOffset" : 19716
        },
        {
            "buffer" : 0,
            "byteLength" : 1164,
            "byteOffset" : 20576
        },
        {
            "buffer" : 0,
            "byteLength" : 1164,
            "byteOffset" : 21740
        },
        {
            "buffer" : 0,
            "byteLength" : 776,
            "byteOffset" : 22904
        },
        {
            "buffer" : 0,
            "byteLength" : 342,
            "byteOffset" : 23680
        }
    ],
    "buffers" : [
        {
            "byteLength" : 24024,
            "uri" : "data:application/octet-stream;base64,"
        }
    ]
}
