{
    "asset" : {
        "generator" : "Khronos glTF Blender I/O v1.3.48",
        "version" : "2.0"
    },
    "scene" : 0,
    "scenes" : [
        {
            "name" : "Scene",
            "nodes" : [
                0
            ]
        }
    ],
    "nodes" : [
        {
            "mesh" : 0,
            "name" : "Cube",
            "translation" : [
                0,
                0.15567432343959808,
                0
            ]
        }
    ],
    "materials" : [
        {
            "doubleSided" : true,
            "emissiveFactor" : [
                0,
                0,
                0
            ],
            "name" : "Material",
            "pbrMetallicRoughness" : {
                "baseColorFactor" : [
                    0,
                    0.007447437848895788,
                    0.650005578994751,
                    1
                ],
                "metallicFactor" : 0,
                "roughnessFactor" : 0.4000000059604645
            }
        },
        {
            "doubleSided" : true,
            "emissiveFactor" : [
                0,
                0,
                0
            ],
            "name" : "Highlight",
            "pbrMetallicRoughness" : {
                "baseColorFactor" : [
                    0.800000011920929,
                    0.800000011920929,
                    0.800000011920929,
                    1
                ],
                "metallicFactor" : 0,
                "roughnessFactor" : 0.5
            }
        }
    ],
    "meshes" : [
        {
            "name" : "Cube",
            "primitives" : [
                {
                    "attributes" : {
                        "POSITION" : 0,
                        "NORMAL" : 1,
                        "TEXCOORD_0" : 2
                    },
                    "indices" : 3,
                    "material" : 0
                },
                {
                    "attributes" : {
                        "POSITION" : 4,
                        "NORMAL" : 5,
                        "TEXCOORD_0" : 6
                    },
                    "indices" : 7,
                    "material" : 1
                }
            ]
        }
    ],
    "accessors" : [
        {
            "bufferView" : 0,
            "componentType" : 5126,
            "count" : 597,
            "max" : [
                0.10086469352245331,
                4.962784290313721,
                0.13801108300685883
            ],
            "min" : [
                -0.13813821971416473,
                -0.12041185796260834,
                -0.13802118599414825
            ],
            "type" : "VEC3"
        },
        {
            "bufferView" : 1,
            "componentType" : 5126,
            "count" : 597,
            "type" : "VEC3"
        },
        {
            "bufferView" : 2,
            "componentType" : 5126,
            "count" : 597,
            "type" : "VEC2"
        },
        {
            "bufferView" : 3,
            "componentType" : 5123,
            "count" : 1080,
            "type" : "SCALAR"
        },
        {
            "bufferView" : 4,
            "componentType" : 5126,
            "count" : 550,
            "max" : [
                0.10091705620288849,
                4.998085975646973,
                0.15566182136535645
            ],
            "min" : [
                -0.16871020197868347,
                -0.1557135283946991,
                -0.1557307094335556
            ],
            "type" : "VEC3"
        },
        {
            "bufferView" : 5,
            "componentType" : 5126,
            "count" : 550,
            "type" : "VEC3"
        },
        {
            "bufferView" : 6,
            "componentType" : 5126,
            "count" : 550,
            "type" : "VEC2"
        },
        {
            "bufferView" : 7,
            "componentType" : 5123,
            "count" : 864,
            "type" : "SCALAR"
        }
    ],
    "bufferViews" : [
        {
            "buffer" : 0,
            "byteLength" : 7164,
            "byteOffset" : 0
        },
        {
            "buffer" : 0,
            "byteLength" : 7164,
            "byteOffset" : 7164
        },
        {
            "buffer" : 0,
            "byteLength" : 4776,
            "byteOffset" : 14328
        },
        {
            "buffer" : 0,
            "byteLength" : 2160,
            "byteOffset" : 19104
        },
        {
            "buffer" : 0,
            "byteLength" : 6600,
            "byteOffset" : 21264
        },
        {
            "buffer" : 0,
            "byteLength" : 6600,
            "byteOffset" : 27864
        },
        {
            "buffer" : 0,
            "byteLength" : 4400,
            "byteOffset" : 34464
        },
        {
            "buffer" : 0,
            "byteLength" : 1728,
            "byteOffset" : 38864
        }
    ],
    "buffers" : [
        {
            "byteLength" : 40592,
            "uri" : "data:application/octet-stream;base64,"
        }
    ]
}
