{
    "asset" : {
        "generator" : "Khronos glTF Blender I/O v1.0.5",
        "version" : "2.0"
    },
    "scene" : 0,
    "scenes" : [
        {
            "name" : "Scene",
            "nodes" : [
                0,
                1,
                2,
                3,
                4
            ]
        }
    ],
    "nodes" : [
        {
            "mesh" : 0,
            "name" : "Cube",
            "rotation" : [
                0,
                1,
                0,
                -1.6292068494294654e-07
            ]
        },
        {
            "name" : "Light",
            "rotation" : [
                0.16907575726509094,
                0.7558803558349609,
                -0.27217137813568115,
                0.570947527885437
            ],
            "translation" : [
                4.076245307922363,
                5.903861999511719,
                -1.0054539442062378
            ]
        },
        {
            "mesh" : 1,
            "name" : "Cylinder",
            "translation" : [
                0,
                1.3042627573013306,
                0
            ]
        },
        {
            "mesh" : 2,
            "name" : "Cylinder.002",
            "rotation" : [
                -0.7070160508155823,
                0.707016110420227,
                -0.011325844563543797,
                -0.011325990781188011
            ],
            "scale" : [
                0.6158233880996704,
                0.098720982670784,
                0.6158233880996704
            ],
            "translation" : [
                0,
                1.9508873224258423,
                -0.9387311935424805
            ]
        },
        {
            "mesh" : 3,
            "name" : "Cylinder.001",
            "rotation" : [
                -0.011325730010867119,
                -0.011326106265187263,
                0.7070160508155823,
                -0.707016110420227
            ],
            "scale" : [
                0.6158233880996704,
                0.098720982670784,
                0.6158233880996704
            ],
            "translation" : [
                0,
                1.9508873224258423,
                0.9429441690444946
            ]
        }
    ],
    "materials" : [
        {
            "doubleSided" : true,
            "name" : "blue_checker_mat",
            "pbrMetallicRoughness" : {
                "metallicFactor" : 0,
                "roughnessFactor" : 0.4000000059604645
            }
        },
        {
            "doubleSided" : true,
            "name" : "gold_mat",
            "pbrMetallicRoughness" : {
                "baseColorFactor" : [
                    0.8000000715255737,
                    0.6603063344955444,
                    0,
                    1
                ],
                "metallicFactor" : 0,
                "roughnessFactor" : 0.31196582317352295
            }
        }
    ],
    "meshes" : [
        {
            "name" : "Cube",
            "primitives" : [
                {
                    "attributes" : {
                        "POSITION" : 0,
                        "NORMAL" : 1,
                        "TEXCOORD_0" : 2
                    },
                    "indices" : 3,
                    "material" : 0
                },
                {
                    "attributes" : {
                        "POSITION" : 4,
                        "NORMAL" : 5,
                        "TEXCOORD_0" : 6
                    },
                    "indices" : 7,
                    "material" : 1
                }
            ]
        },
        {
            "name" : "Cylinder",
            "primitives" : [
                {
                    "attributes" : {
                        "POSITION" : 8,
                        "NORMAL" : 9,
                        "TEXCOORD_0" : 10
                    },
                    "indices" : 11,
                    "material" : 1
                }
            ]
        },
        {
            "name" : "Cylinder.002",
            "primitives" : [
                {
                    "attributes" : {
                        "POSITION" : 12,
                        "NORMAL" : 13,
                        "TEXCOORD_0" : 14
                    },
                    "indices" : 15,
                    "material" : 1
                }
            ]
        },
        {
            "name" : "Cylinder.003",
            "primitives" : [
                {
                    "attributes" : {
                        "POSITION" : 16,
                        "NORMAL" : 17,
                        "TEXCOORD_0" : 18
                    },
                    "indices" : 15,
                    "material" : 1
                }
            ]
        }
    ],
    "accessors" : [
        {
            "bufferView" : 0,
            "componentType" : 5126,
            "count" : 116,
            "max" : [
                1,
                -0.2558553218841553,
                1
            ],
            "min" : [
                -1,
                -1,
                -1
            ],
            "type" : "VEC3"
        },
        {
            "bufferView" : 1,
            "componentType" : 5126,
            "count" : 116,
            "type" : "VEC3"
        },
        {
            "bufferView" : 2,
            "componentType" : 5126,
            "count" : 116,
            "type" : "VEC2"
        },
        {
            "bufferView" : 3,
            "componentType" : 5123,
            "count" : 174,
            "type" : "SCALAR"
        },
        {
            "bufferView" : 4,
            "componentType" : 5126,
            "count" : 20,
            "max" : [
                -0.7183127403259277,
                -0.44054073095321655,
                0.663939893245697
            ],
            "min" : [
                -1.0122607946395874,
                -0.8368373513221741,
                -0.6425985097885132
            ],
            "type" : "VEC3"
        },
        {
            "bufferView" : 5,
            "componentType" : 5126,
            "count" : 20,
            "type" : "VEC3"
        },
        {
            "bufferView" : 6,
            "componentType" : 5126,
            "count" : 20,
            "type" : "VEC2"
        },
        {
            "bufferView" : 7,
            "componentType" : 5123,
            "count" : 30,
            "type" : "SCALAR"
        },
        {
            "bufferView" : 8,
            "componentType" : 5126,
            "count" : 1216,
            "max" : [
                1.1582907438278198,
                1.2986431121826172,
                1.1582907438278198
            ],
            "min" : [
                -1.1582907438278198,
                -1.5861026048660278,
                -1.1582906246185303
            ],
            "type" : "VEC3"
        },
        {
            "bufferView" : 9,
            "componentType" : 5126,
            "count" : 1216,
            "type" : "VEC3"
        },
        {
            "bufferView" : 10,
            "componentType" : 5126,
            "count" : 1216,
            "type" : "VEC2"
        },
        {
            "bufferView" : 11,
            "componentType" : 5123,
            "count" : 1908,
            "type" : "SCALAR"
        },
        {
            "bufferView" : 12,
            "componentType" : 5126,
            "count" : 136,
            "max" : [
                1.23008394241333,
                1.0000003576278687,
                1.1161577701568604
            ],
            "min" : [
                -1.0299447774887085,
                -1.0000004768371582,
                -0.14432668685913086
            ],
            "type" : "VEC3"
        },
        {
            "bufferView" : 13,
            "componentType" : 5126,
            "count" : 136,
            "type" : "VEC3"
        },
        {
            "bufferView" : 14,
            "componentType" : 5126,
            "count" : 136,
            "type" : "VEC2"
        },
        {
            "bufferView" : 15,
            "componentType" : 5123,
            "count" : 204,
            "type" : "SCALAR"
        },
        {
            "bufferView" : 16,
            "componentType" : 5126,
            "count" : 136,
            "max" : [
                1.23008394241333,
                1.0000003576278687,
                1.1161577701568604
            ],
            "min" : [
                -1.0299447774887085,
                -1.0000004768371582,
                -0.14432668685913086
            ],
            "type" : "VEC3"
        },
        {
            "bufferView" : 17,
            "componentType" : 5126,
            "count" : 136,
            "type" : "VEC3"
        },
        {
            "bufferView" : 18,
            "componentType" : 5126,
            "count" : 136,
            "type" : "VEC2"
        }
    ],
    "bufferViews" : [
        {
            "buffer" : 0,
            "byteLength" : 1392,
            "byteOffset" : 0
        },
        {
            "buffer" : 0,
            "byteLength" : 1392,
            "byteOffset" : 1392
        },
        {
            "buffer" : 0,
            "byteLength" : 928,
            "byteOffset" : 2784
        },
        {
            "buffer" : 0,
            "byteLength" : 348,
            "byteOffset" : 3712
        },
        {
            "buffer" : 0,
            "byteLength" : 240,
            "byteOffset" : 4060
        },
        {
            "buffer" : 0,
            "byteLength" : 240,
            "byteOffset" : 4300
        },
        {
            "buffer" : 0,
            "byteLength" : 160,
            "byteOffset" : 4540
        },
        {
            "buffer" : 0,
            "byteLength" : 60,
            "byteOffset" : 4700
        },
        {
            "buffer" : 0,
            "byteLength" : 14592,
            "byteOffset" : 4760
        },
        {
            "buffer" : 0,
            "byteLength" : 14592,
            "byteOffset" : 19352
        },
        {
            "buffer" : 0,
            "byteLength" : 9728,
            "byteOffset" : 33944
        },
        {
            "buffer" : 0,
            "byteLength" : 3816,
            "byteOffset" : 43672
        },
        {
            "buffer" : 0,
            "byteLength" : 1632,
            "byteOffset" : 47488
        },
        {
            "buffer" : 0,
            "byteLength" : 1632,
            "byteOffset" : 49120
        },
        {
            "buffer" : 0,
            "byteLength" : 1088,
            "byteOffset" : 50752
        },
        {
            "buffer" : 0,
            "byteLength" : 408,
            "byteOffset" : 51840
        },
        {
            "buffer" : 0,
            "byteLength" : 1632,
            "byteOffset" : 52248
        },
        {
            "buffer" : 0,
            "byteLength" : 1632,
            "byteOffset" : 53880
        },
        {
            "buffer" : 0,
            "byteLength" : 1088,
            "byteOffset" : 55512
        }
    ],
    "buffers" : [
        {
            "byteLength" : 56600,
            "uri" : "data:application/octet-stream;base64,"
        }
    ]
}
