{
    "asset" : {
        "generator" : "Khronos glTF Blender I/O v1.3.48",
        "version" : "2.0"
    },
    "scene" : 0,
    "scenes" : [
        {
            "name" : "Scene",
            "nodes" : [
                0,
                1,
                2
            ]
        }
    ],
    "nodes" : [
        {
            "mesh" : 0,
            "name" : "Cylinder"
        },
        {
            "mesh" : 1,
            "name" : "Cylinder.001",
            "rotation" : [
                0,
                0.13052619993686676,
                0,
                0.9914448857307434
            ],
            "translation" : [
                0,
                0.4000000059604645,
                0
            ]
        },
        {
            "mesh" : 2,
            "name" : "Cylinder.002",
            "rotation" : [
                0,
                0.2588190734386444,
                0,
                0.965925931930542
            ],
            "translation" : [
                0,
                0.800000011920929,
                0
            ]
        }
    ],
    "materials" : [
        {
            "doubleSided" : true,
            "emissiveFactor" : [
                0,
                0,
                0
            ],
            "name" : "weight_side",
            "pbrMetallicRoughness" : {
                "baseColorFactor" : [
                    0.0028263276908546686,
                    0.5173338651657104,
                    0.0015833338256925344,
                    1
                ],
                "metallicFactor" : 0,
                "roughnessFactor" : 0.5
            }
        },
        {
            "doubleSided" : true,
            "emissiveFactor" : [
                0,
                0,
                0
            ],
            "name" : "weight_face",
            "pbrMetallicRoughness" : {
                "baseColorFactor" : [
                    0.1574343740940094,
                    0.1574343740940094,
                    0.1574343740940094,
                    1
                ],
                "metallicFactor" : 0.25362318754196167,
                "roughnessFactor" : 0.5
            }
        }
    ],
    "meshes" : [
        {
            "name" : "Cylinder",
            "primitives" : [
                {
                    "attributes" : {
                        "POSITION" : 0,
                        "NORMAL" : 1,
                        "TEXCOORD_0" : 2
                    },
                    "indices" : 3,
                    "material" : 0
                },
                {
                    "attributes" : {
                        "POSITION" : 4,
                        "NORMAL" : 5,
                        "TEXCOORD_0" : 6
                    },
                    "indices" : 7,
                    "material" : 1
                }
            ]
        },
        {
            "name" : "Cylinder.001",
            "primitives" : [
                {
                    "attributes" : {
                        "POSITION" : 8,
                        "NORMAL" : 9,
                        "TEXCOORD_0" : 10
                    },
                    "indices" : 3,
                    "material" : 0
                },
                {
                    "attributes" : {
                        "POSITION" : 11,
                        "NORMAL" : 12,
                        "TEXCOORD_0" : 13
                    },
                    "indices" : 7,
                    "material" : 1
                }
            ]
        },
        {
            "name" : "Cylinder.002",
            "primitives" : [
                {
                    "attributes" : {
                        "POSITION" : 14,
                        "NORMAL" : 15,
                        "TEXCOORD_0" : 16
                    },
                    "indices" : 3,
                    "material" : 0
                },
                {
                    "attributes" : {
                        "POSITION" : 17,
                        "NORMAL" : 18,
                        "TEXCOORD_0" : 19
                    },
                    "indices" : 7,
                    "material" : 1
                }
            ]
        }
    ],
    "accessors" : [
        {
            "bufferView" : 0,
            "componentType" : 5126,
            "count" : 32,
            "max" : [
                0.9999999403953552,
                0.16883882880210876,
                1
            ],
            "min" : [
                -1,
                -0.16883882880210876,
                -1
            ],
            "type" : "VEC3"
        },
        {
            "bufferView" : 1,
            "componentType" : 5126,
            "count" : 32,
            "type" : "VEC3"
        },
        {
            "bufferView" : 2,
            "componentType" : 5126,
            "count" : 32,
            "type" : "VEC2"
        },
        {
            "bufferView" : 3,
            "componentType" : 5123,
            "count" : 48,
            "type" : "SCALAR"
        },
        {
            "bufferView" : 4,
            "componentType" : 5126,
            "count" : 16,
            "max" : [
                0.9999999403953552,
                0.16883882880210876,
                1
            ],
            "min" : [
                -1,
                -0.16883882880210876,
                -1
            ],
            "type" : "VEC3"
        },
        {
            "bufferView" : 5,
            "componentType" : 5126,
            "count" : 16,
            "type" : "VEC3"
        },
        {
            "bufferView" : 6,
            "componentType" : 5126,
            "count" : 16,
            "type" : "VEC2"
        },
        {
            "bufferView" : 7,
            "componentType" : 5123,
            "count" : 36,
            "type" : "SCALAR"
        },
        {
            "bufferView" : 8,
            "componentType" : 5126,
            "count" : 32,
            "max" : [
                0.6999999284744263,
                0.16883882880210876,
                0.699999988079071
            ],
            "min" : [
                -0.699999988079071,
                -0.16883882880210876,
                -0.699999988079071
            ],
            "type" : "VEC3"
        },
        {
            "bufferView" : 9,
            "componentType" : 5126,
            "count" : 32,
            "type" : "VEC3"
        },
        {
            "bufferView" : 10,
            "componentType" : 5126,
            "count" : 32,
            "type" : "VEC2"
        },
        {
            "bufferView" : 11,
            "componentType" : 5126,
            "count" : 16,
            "max" : [
                0.6999999284744263,
                0.16883882880210876,
                0.699999988079071
            ],
            "min" : [
                -0.699999988079071,
                -0.16883882880210876,
                -0.699999988079071
            ],
            "type" : "VEC3"
        },
        {
            "bufferView" : 12,
            "componentType" : 5126,
            "count" : 16,
            "type" : "VEC3"
        },
        {
            "bufferView" : 13,
            "componentType" : 5126,
            "count" : 16,
            "type" : "VEC2"
        },
        {
            "bufferView" : 14,
            "componentType" : 5126,
            "count" : 32,
            "max" : [
                0.34999993443489075,
                0.16883882880210876,
                0.3499999940395355
            ],
            "min" : [
                -0.3500000238418579,
                -0.16883882880210876,
                -0.3499999940395355
            ],
            "type" : "VEC3"
        },
        {
            "bufferView" : 15,
            "componentType" : 5126,
            "count" : 32,
            "type" : "VEC3"
        },
        {
            "bufferView" : 16,
            "componentType" : 5126,
            "count" : 32,
            "type" : "VEC2"
        },
        {
            "bufferView" : 17,
            "componentType" : 5126,
            "count" : 16,
            "max" : [
                0.34999993443489075,
                0.16883882880210876,
                0.3499999940395355
            ],
            "min" : [
                -0.3500000238418579,
                -0.16883882880210876,
                -0.3499999940395355
            ],
            "type" : "VEC3"
        },
        {
            "bufferView" : 18,
            "componentType" : 5126,
            "count" : 16,
            "type" : "VEC3"
        },
        {
            "bufferView" : 19,
            "componentType" : 5126,
            "count" : 16,
            "type" : "VEC2"
        }
    ],
    "bufferViews" : [
        {
            "buffer" : 0,
            "byteLength" : 384,
            "byteOffset" : 0
        },
        {
            "buffer" : 0,
            "byteLength" : 384,
            "byteOffset" : 384
        },
        {
            "buffer" : 0,
            "byteLength" : 256,
            "byteOffset" : 768
        },
        {
            "buffer" : 0,
            "byteLength" : 96,
            "byteOffset" : 1024
        },
        {
            "buffer" : 0,
            "byteLength" : 192,
            "byteOffset" : 1120
        },
        {
            "buffer" : 0,
            "byteLength" : 192,
            "byteOffset" : 1312
        },
        {
            "buffer" : 0,
            "byteLength" : 128,
            "byteOffset" : 1504
        },
        {
            "buffer" : 0,
            "byteLength" : 72,
            "byteOffset" : 1632
        },
        {
            "buffer" : 0,
            "byteLength" : 384,
            "byteOffset" : 1704
        },
        {
            "buffer" : 0,
            "byteLength" : 384,
            "byteOffset" : 2088
        },
        {
            "buffer" : 0,
            "byteLength" : 256,
            "byteOffset" : 2472
        },
        {
            "buffer" : 0,
            "byteLength" : 192,
            "byteOffset" : 2728
        },
        {
            "buffer" : 0,
            "byteLength" : 192,
            "byteOffset" : 2920
        },
        {
            "buffer" : 0,
            "byteLength" : 128,
            "byteOffset" : 3112
        },
        {
            "buffer" : 0,
            "byteLength" : 384,
            "byteOffset" : 3240
        },
        {
            "buffer" : 0,
            "byteLength" : 384,
            "byteOffset" : 3624
        },
        {
            "buffer" : 0,
            "byteLength" : 256,
            "byteOffset" : 4008
        },
        {
            "buffer" : 0,
            "byteLength" : 192,
            "byteOffset" : 4264
        },
        {
            "buffer" : 0,
            "byteLength" : 192,
            "byteOffset" : 4456
        },
        {
            "buffer" : 0,
            "byteLength" : 128,
            "byteOffset" : 4648
        }
    ],
    "buffers" : [
        {
            "byteLength" : 4776,
            "uri" : "data:application/octet-stream;base64,"
        }
    ]
}
