<?xml version="1.0" encoding="UTF-8" standalone="no"?>
<!-- Created with Inkscape (http://www.inkscape.org/) -->

<svg
   xmlns:osb="http://www.openswatchbook.org/uri/2009/osb"
   xmlns:dc="http://purl.org/dc/elements/1.1/"
   xmlns:cc="http://creativecommons.org/ns#"
   xmlns:rdf="http://www.w3.org/1999/02/22-rdf-syntax-ns#"
   xmlns:svg="http://www.w3.org/2000/svg"
   xmlns="http://www.w3.org/2000/svg"
   xmlns:xlink="http://www.w3.org/1999/xlink"
   xmlns:sodipodi="http://sodipodi.sourceforge.net/DTD/sodipodi-0.dtd"
   xmlns:inkscape="http://www.inkscape.org/namespaces/inkscape"
   width="1024"
   height="1024"
   viewBox="0 0 270.93333 270.93334"
   version="1.1"
   id="svg8"
   inkscape:version="0.92.5 (2060ec1f9f, 2020-04-08)"
   sodipodi:docname="stickman.svg"
   inkscape:export-filename="/home/developer/Development/godot_workspace/VRWorkout/godot_project/stick-figure.png"
   inkscape:export-xdpi="96"
   inkscape:export-ydpi="96">
  <defs
     id="defs2">
    <linearGradient
       id="linearGradient2319"
       osb:paint="solid">
      <stop
         style="stop-color:#000000;stop-opacity:1;"
         offset="0"
         id="stop2317" />
    </linearGradient>
    <linearGradient
       inkscape:collect="always"
       xlink:href="#linearGradient899"
       id="linearGradient901"
       x1="22.612837"
       y1="262.84015"
       x2="45.105392"
       y2="262.84015"
       gradientUnits="userSpaceOnUse" />
    <linearGradient
       id="linearGradient899"
       osb:paint="solid">
      <stop
         style="stop-color:#ffffff;stop-opacity:1;"
         offset="0"
         id="stop897" />
    </linearGradient>
  </defs>
  <sodipodi:namedview
     id="base"
     pagecolor="#000000"
     bordercolor="#666666"
     borderopacity="1.0"
     inkscape:pageopacity="0"
     inkscape:pageshadow="2"
     inkscape:zoom="0.77771465"
     inkscape:cx="316.56313"
     inkscape:cy="243.70206"
     inkscape:document-units="mm"
     inkscape:current-layer="layer1"
     showgrid="false"
     showguides="true"
     inkscape:guide-bbox="true"
     units="px"
     inkscape:window-width="1889"
     inkscape:window-height="1056"
     inkscape:window-x="31"
     inkscape:window-y="0"
     inkscape:window-maximized="1">
    <sodipodi:guide
       position="135.40206,141.52577"
       orientation="1,0"
       id="guide925"
       inkscape:locked="false" />
    <sodipodi:guide
       position="67.360822,193.91753"
       orientation="1,0"
       id="guide927"
       inkscape:locked="false" />
    <sodipodi:guide
       position="161.25773,135.74227"
       orientation="0,1"
       id="guide929"
       inkscape:locked="false" />
    <sodipodi:guide
       position="228.77456,109.93688"
       orientation="1,0"
       id="guide940"
       inkscape:locked="false" />
    <inkscape:grid
       type="xygrid"
       id="grid866" />
  </sodipodi:namedview>
  <metadata
     id="metadata5">
    <rdf:RDF>
      <cc:Work
         rdf:about="">
        <dc:format>image/svg+xml</dc:format>
        <dc:type
           rdf:resource="http://purl.org/dc/dcmitype/StillImage" />
        <dc:title />
      </cc:Work>
    </rdf:RDF>
  </metadata>
  <g
     inkscape:label="Ebene 1"
     inkscape:groupmode="layer"
     id="layer1"
     transform="translate(0,-26.06664)">
    <path
       style="fill:#f5f5f5;stroke-width:0.29966173;fill-opacity:1"
       d="m 102.97536,154.50405 c -1.96401,-0.85597 -2.00365,-1.19299 -1.06286,-9.03646 0.33524,-2.79501 0.61037,-5.41895 0.61138,-5.83099 l 0.002,-0.74915 -7.350813,-0.79554 c -6.94402,-0.75152 -7.410125,-0.84079 -8.422995,-1.61336 -1.11259,-0.84859 -2.18763,-2.78585 -2.19906,-3.96273 -0.005,-0.5857 3.08974,-14.67636 3.913015,-17.81243 0.60767,-2.31476 2.6185,-3.86124 5.04505,-3.88004 1.85871,-0.0145 3.59428,0.87501 4.57918,2.34663 0.65072,0.9723 1.19048,1.30777 3.575063,2.22192 l 2.80862,1.0767 4.59384,-0.61531 c 4.12048,-0.5519 4.67629,-0.56923 5.39394,-0.16819 0.62718,0.3505 0.81937,0.70748 0.88934,1.65174 0.13939,1.88162 -0.40233,2.1753 -5.23288,2.8368 -5.62396,0.77015 -6.43353,0.74073 -9.1971,-0.33421 -1.294803,-0.50366 -2.405843,-0.86409 -2.468953,-0.80098 -0.0631,0.0631 -0.70755,2.71099 -1.43208,5.88415 -0.89966,3.94015 -1.20946,5.8038 -0.97715,5.87797 0.18709,0.0598 2.81373,0.37941 5.836963,0.71042 5.71731,0.62592 6.6728,0.92019 7.27424,2.24021 0.43331,0.95102 -1.63821,18.87786 -2.29772,19.88441 -0.80474,1.22816 -2.29188,1.56095 -3.88088,0.86844 z M 6.2192777,138.52599 c -0.955413,-0.34927 -1.797967,-1.40878 -1.797967,-2.26096 0,-1.75577 0.938367,-2.24003 12.2861303,-6.34042 14.364793,-5.19056 13.784437,-4.96213 13.784437,-5.42575 0,-1.21744 1.41438,-1.96867 8.737421,-4.64075 4.063921,-1.48287 7.732176,-2.69614 8.151683,-2.69614 2.054238,0 3.487894,1.9295 3.487894,4.69423 0,0.89282 0.721814,3.44047 2.136724,7.54161 1.175197,3.40635 2.141606,6.58552 2.147578,7.06485 0.01201,0.96595 -1.232538,2.27495 -2.162971,2.27495 -1.388099,0 -1.988084,-1.04855 -4.064201,-7.1027 -1.11893,-3.26292 -2.140272,-6.05007 -2.269651,-6.19367 -0.129364,-0.1436 -2.878456,0.6992 -6.109059,1.87288 -3.230606,1.17369 -6.294038,2.13398 -6.807632,2.13398 -0.513592,0 -6.668333,2.09015 -13.677203,4.64475 -7.008868,2.55463 -12.8897103,4.63411 -13.0685413,4.62112 -0.178842,-0.0131 -0.527421,-0.0976 -0.774642,-0.18798 z M 53.488451,123.38768 c -2.197467,-1.27367 -2.94525,-4.50899 -1.502214,-6.49942 0.915174,-1.26236 3.131756,-2.21779 4.578233,-1.97341 3.167591,0.53516 4.819521,4.06096 3.214415,6.86069 -1.256934,2.19241 -4.052956,2.90899 -6.290434,1.61214 z M 93.920977,109.3428 c -1.63509,-1.04728 -2.27357,-2.41001 -2.12053,-4.52591 0.12104,-1.67341 0.23214,-1.9169 1.35054,-2.96014 4.19047,-3.908823 10.329333,0.94079 7.437413,5.87547 -0.43105,0.73554 -1.167833,1.46443 -1.768333,1.74938 -1.44801,0.68713 -3.70961,0.62305 -4.89909,-0.13881 z M 20.263105,83.96272 c -1.028263,-0.558678 -1.304573,-1.701743 -0.708217,-2.929792 0.257025,-0.529316 2.052627,-3.187382 3.990189,-5.906812 1.93756,-2.719431 4.384797,-6.193944 5.438297,-7.721147 l 1.915465,-2.776725 -1.327213,-7.561604 -1.32721,-7.561599 -4.737589,-5.346608 c -2.605673,-2.940637 -4.870462,-5.696098 -5.032865,-6.123251 -0.64104,-1.686067 1.093887,-3.442482 2.770661,-2.804974 0.413477,0.157215 2.652205,2.433552 4.974953,5.05855 l 4.223176,4.772724 1.373042,-0.318574 c 1.036663,-0.240531 1.373041,-0.45787 1.373041,-0.887209 0,-0.466896 -0.154599,-0.537728 -0.86399,-0.395853 -2.94245,0.58849 -5.635554,-2.204749 -4.984345,-5.169677 0.258405,-1.176492 1.770002,-2.697847 2.906366,-2.925121 0.871496,-0.174311 0.875955,-0.186062 0.676457,-1.782758 -0.223436,-1.788315 0.247542,-2.900463 1.380633,-3.260089 0.837742,-0.265873 2.220815,0.334926 2.642575,1.147973 0.528369,1.018542 3.525483,14.600454 4.87245,22.08029 0.66779,3.70831 2.419982,11.660128 3.89376,17.670705 2.332785,9.513929 2.634299,11.037663 2.329638,11.773178 -0.618572,1.493366 -2.047839,1.843192 -3.349002,0.819697 -0.671793,-0.528433 -1.01373,-1.621239 -2.812285,-8.987871 -2.002556,-8.202213 -2.063942,-8.386246 -2.796653,-8.384184 -1.744348,0.0049 -2.047745,0.33758 -7.839909,8.595991 -3.179608,4.533462 -6.10576,8.498026 -6.502555,8.810151 -0.852182,0.670324 -1.408665,0.696045 -2.47887,0.11457 z M 120.9677,73.58935 c -0.56895,-0.1558 -2.67776,-2.031656 -5.88653,-5.236249 l -4.99999,-4.993451 -4.66679,3.261192 c -2.56671,1.79366 -5.512563,3.787082 -6.546323,4.429824 -3.2186,2.001212 -5.48417,1.741257 -6.93495,-0.795722 -5.453875,-9.537236 -8.585375,-15.477332 -8.585425,-16.285581 -8e-5,-1.40534 1.15243,-2.854058 3.09418,-3.889428 l 1.731775,-0.923414 7.10126,0.119419 c 3.90568,0.06569 7.460513,0.256778 7.899613,0.424711 1.4396,0.550514 1.80604,2.536514 0.73797,3.999659 -0.39285,0.53817 -0.88066,0.614611 -4.780783,0.749151 l -4.34328,0.149819 2.4723,4.431948 c 1.35977,2.437574 2.59773,4.557373 2.751043,4.710668 0.17182,0.171833 1.9796,-0.913942 4.71466,-2.831739 4.66192,-3.268902 5.41478,-3.636048 6.5439,-3.191298 0.38226,0.150562 3.42572,3.02381 6.76322,6.384974 5.40051,5.438815 6.06817,6.2187 6.06817,7.088135 0,0.537307 -0.13201,1.223572 -0.29333,1.525029 -0.40057,0.748465 -1.76409,1.167183 -2.84069,0.872345 z M 82.748312,49.29183 c -3.78818,-1.029841 -4.49738,-6.273498 -1.12647,-8.328769 2.91381,-1.776567 6.935305,0.442644 6.935305,3.827167 0,3.166832 -2.783625,5.324028 -5.808835,4.501602 z"
       id="path896"
       inkscape:connector-curvature="0"
       sodipodi:nodetypes="ccccsccccccccccscsscccccccssssssccscccscccccscccccccccccsccccsscsccsccccccsscsscsccccccccccccccccccccccscccccsc" />
    <path
       style="fill:none;stroke:#ffffff;stroke-width:4.24717426;stroke-linecap:round;stroke-linejoin:miter;stroke-miterlimit:4;stroke-dasharray:none;stroke-opacity:1"
       d="m 163.56809,81.807887 4.69893,-20.635183 h 5.19224 l 3.90464,20.635183"
       id="path913"
       inkscape:connector-curvature="0"
       sodipodi:nodetypes="cccc" />
    <path
       style="fill:none;stroke:#ffffff;stroke-width:4.24717426;stroke-linecap:round;stroke-linejoin:miter;stroke-miterlimit:4;stroke-dasharray:none;stroke-opacity:1"
       d="m 158.6654,34.148274 4.36591,8.349537 4.36592,4.603765 0.74591,0.134488 0.12391,13.936617 h 5.30931 l -0.25784,-13.946666 0.53287,-0.07864 3.49756,-4.626667 3.49754,-8.372437"
       id="path915"
       inkscape:connector-curvature="0"
       sodipodi:nodetypes="cccccccccc" />
    <path
       inkscape:connector-curvature="0"
       id="path917"
       d="m 169.12894,43.632317 c -3.78818,-1.029841 -4.4974,-6.273498 -1.12648,-8.328769 2.91381,-1.776567 6.93531,0.442644 6.93531,3.827168 0,3.166832 -2.78364,5.324028 -5.80883,4.501601 z"
       style="fill:#ffffff;stroke-width:0.29966173;fill-opacity:1"
       sodipodi:nodetypes="cssc" />
    <path
       style="fill:none;stroke:#ffffff;stroke-width:4.24717426;stroke-linecap:butt;stroke-linejoin:miter;stroke-miterlimit:4;stroke-dasharray:none;stroke-opacity:1"
       d="m 170.65846,45.42035 0.17559,16.212168"
       id="path919"
       inkscape:connector-curvature="0"
       sodipodi:nodetypes="cc" />
    <path
       style="fill:none;stroke:#fcfcfc;stroke-width:2.47751832;stroke-linecap:round;stroke-linejoin:miter;stroke-miterlimit:4;stroke-dasharray:none;stroke-opacity:1"
       d="m 153.75109,87.735838 h 32.11501 v 0"
       id="path923"
       inkscape:connector-curvature="0" />
    <path
       sodipodi:nodetypes="cssssssccscccscccccscc"
       inkscape:connector-curvature="0"
       id="path966"
       d="m 143.8395,148.23594 c -0.56048,-0.20489 -1.05477,-0.82645 -1.05477,-1.32638 0,-1.03002 0.55049,-1.31411 7.20763,-3.71959 8.42707,-3.04503 8.08661,-2.91102 8.08661,-3.18301 0,-0.7142 0.82975,-1.15491 5.12579,-2.72248 2.38409,-0.86992 4.53606,-1.58168 4.78216,-1.58168 1.20512,0 2.04617,1.13193 2.04617,2.75386 0,0.52377 0.42345,2.01834 1.2535,4.42426 0.68943,1.99833 1.25637,3.86338 1.25988,4.14458 0.007,0.56667 -0.72307,1.33459 -1.26891,1.33459 -0.81432,0 -1.1663,-0.61513 -2.38425,-4.16678 -0.65642,-1.91418 -1.25559,-3.54926 -1.33149,-3.6335 -0.0759,-0.0842 -1.68863,0.41018 -3.58386,1.09872 -1.89523,0.68854 -3.69238,1.25189 -3.99369,1.25189 -0.30129,0 -3.91195,1.22618 -8.02369,2.72483 -4.11174,1.49867 -7.56172,2.71859 -7.66664,2.71097 -0.10491,-0.008 -0.3094,-0.0573 -0.45444,-0.11028 z m 27.73036,-8.88085 c -1.28914,-0.74719 -1.72783,-2.64518 -0.88127,-3.81286 0.53688,-0.74056 1.83724,-1.30106 2.6858,-1.1577 1.85827,0.31395 2.82737,2.38235 1.88574,4.02481 -0.73738,1.28617 -2.37766,1.70655 -3.69027,0.94575 z"
       style="fill:#f5f5f5;fill-opacity:1;stroke-width:0.17579576" />
    <path
       style="fill:none;stroke:#ffffff;stroke-width:2.54366708;stroke-linecap:round;stroke-linejoin:miter;stroke-miterlimit:4;stroke-dasharray:none;stroke-opacity:1"
       d="m 184.04292,143.6531 2.81423,-12.35858 h 3.10967 l 2.33852,12.35858"
       id="path913-6"
       inkscape:connector-curvature="0"
       sodipodi:nodetypes="cccc" />
    <path
       style="fill:none;stroke:#ffffff;stroke-width:2.54366708;stroke-linecap:round;stroke-linejoin:miter;stroke-miterlimit:4;stroke-dasharray:none;stroke-opacity:1"
       d="m 181.10666,115.10937 2.61478,5.0006 2.61478,2.75724 0.44673,0.0805 0.0742,8.34675 h 3.17979 l -0.15442,-8.35277 0.31914,-0.0471 2.09472,-2.77095 2.0947,-5.01432"
       id="path915-7"
       inkscape:connector-curvature="0"
       sodipodi:nodetypes="cccccccccc" />
    <path
       inkscape:connector-curvature="0"
       id="path917-5"
       d="m 187.37336,120.78944 c -2.26878,-0.61678 -2.69353,-3.75725 -0.67466,-4.98817 1.7451,-1.064 4.15361,0.2651 4.15361,2.29212 0,1.89664 -1.66714,3.18861 -3.47895,2.69605 z"
       style="fill:#ffffff;fill-opacity:1;stroke-width:0.17946984"
       sodipodi:nodetypes="cssc" />
    <path
       style="fill:none;stroke:#ffffff;stroke-width:2.54366708;stroke-linecap:butt;stroke-linejoin:miter;stroke-miterlimit:4;stroke-dasharray:none;stroke-opacity:1"
       d="m 188.2894,121.86031 0.10516,9.7096"
       id="path919-3"
       inkscape:connector-curvature="0"
       sodipodi:nodetypes="cc" />
    <path
       style="fill:none;stroke:#fcfcfc;stroke-width:1.48380578;stroke-linecap:round;stroke-linejoin:miter;stroke-miterlimit:4;stroke-dasharray:none;stroke-opacity:1"
       d="m 140.63575,150.37842 56.76163,0 v 0"
       id="path923-5"
       inkscape:connector-curvature="0"
       sodipodi:nodetypes="ccc" />
    <text
       xml:space="preserve"
       style="font-style:normal;font-variant:normal;font-weight:normal;font-stretch:normal;font-size:16.93333244px;line-height:1.25;font-family:Sawasdee;-inkscape-font-specification:Sawasdee;letter-spacing:0px;word-spacing:0px;fill:#ffffff;fill-opacity:1;stroke:none;stroke-width:0.26458332"
       x="167.72163"
       y="119.41235"
       id="text1015"><tspan
         sodipodi:role="line"
         id="tspan1013"
         x="167.72163"
         y="134.22902"
         style="font-style:normal;font-variant:normal;font-weight:normal;font-stretch:normal;font-family:'Bank Gothic';-inkscape-font-specification:'Bank Gothic';fill:#ffffff;fill-opacity:1;stroke-width:0.26458332" /></text>
    <text
       xml:space="preserve"
       style="font-style:normal;font-variant:normal;font-weight:normal;font-stretch:normal;font-size:16.93333244px;line-height:1.25;font-family:Sawasdee;-inkscape-font-specification:Sawasdee;letter-spacing:0px;word-spacing:0px;fill:#000000;fill-opacity:1;stroke:none;stroke-width:0.26458332"
       x="180.39432"
       y="111.50256"
       id="text1027"><tspan
         sodipodi:role="line"
         id="tspan1025"
         x="180.39432"
         y="111.50256"
         style="font-style:normal;font-variant:normal;font-weight:normal;font-stretch:normal;font-family:'Faster One';-inkscape-font-specification:'Faster One';fill:#ffffff;fill-opacity:1;stroke-width:0.26458332">2</tspan></text>
    <text
       id="text1031"
       y="139.67734"
       x="142.94038"
       style="font-style:normal;font-variant:normal;font-weight:normal;font-stretch:normal;font-size:16.93333244px;line-height:1.25;font-family:Sawasdee;-inkscape-font-specification:Sawasdee;letter-spacing:0px;word-spacing:0px;fill:#000000;fill-opacity:1;stroke:none;stroke-width:0.26458332"
       xml:space="preserve"><tspan
         style="font-style:normal;font-variant:normal;font-weight:normal;font-stretch:normal;font-family:'Faster One';-inkscape-font-specification:'Faster One';fill:#ffffff;fill-opacity:1;stroke-width:0.26458332"
         y="139.67734"
         x="142.94038"
         id="tspan1029"
         sodipodi:role="line"> 1</tspan></text>
    <g
       id="g934"
       transform="translate(5.8208336,-1.5875)">
      <path
         inkscape:connector-curvature="0"
         id="path902"
         d="m 242.89832,87.984585 c -0.73678,-0.24483 -1.29724,-0.77422 -1.54498,-1.45934 -0.23152,-0.64028 -0.18476,-0.92349 1.06372,-6.44145 0.64534,-2.85225 1.16382,-5.20999 1.15218,-5.23943 -0.0116,-0.0294 -1.26767,-1.2636 -2.79119,-2.7426 -1.52352,-1.47899 -2.79184,-2.722034 -2.81849,-2.762319 -0.0319,-0.04816 -0.0692,-0.05002 -0.1089,-0.0054 -1.90938,2.142189 -4.93687,5.503709 -5.03895,5.594909 -0.24431,0.21827 -0.9575,0.5258 -1.46455,0.63152 -0.41936,0.0874 -1.33611,0.0999 -6.1834,0.084 -5.6687,-0.0186 -5.6923,-0.0192 -6.01084,-0.16641 -0.46866,-0.2166 -0.93669,-0.67927 -1.15728,-1.14407 -0.58198,-1.22621 -0.0921,-2.6023 1.12706,-3.1657 l 0.41841,-0.19336 4.61673,-0.0233 4.61672,-0.0233 2.97522,-3.457879 c 1.63638,-1.901835 4.46027,-5.17815 6.27533,-7.280701 1.81506,-2.102551 3.3001,-3.836961 3.3001,-3.854245 0,-0.01728 -0.74637,-0.02919 -1.6586,-0.02645 l -1.6586,0.005 -2.77003,3.216313 c -3.2103,3.727507 -3.20434,3.721019 -3.57929,3.891265 -0.45528,0.206714 -1.16816,0.181047 -1.62684,-0.05857 -0.70276,-0.367123 -1.10541,-1.176345 -0.95611,-1.921499 0.0423,-0.211167 0.16113,-0.512779 0.26405,-0.670249 0.19301,-0.295316 6.31251,-7.355333 6.68243,-7.709471 0.11412,-0.109251 0.346,-0.263142 0.51528,-0.341977 0.30356,-0.141369 0.37582,-0.143336 5.26649,-0.143336 h 4.9587 l 0.41258,0.190745 c 0.36334,0.167979 0.77146,0.549427 3.41937,3.195852 l 3.00679,3.005107 2.46268,-2.451411 c 2.73923,-2.726699 2.72207,-2.713781 3.59367,-2.704306 0.72224,0.0079 1.28817,0.37749 1.65582,1.081509 0.21707,0.415681 0.20735,1.191585 -0.0204,1.628503 -0.11519,0.22096 -1.12916,1.287271 -3.25323,3.421144 -3.32813,3.343483 -3.44486,3.441031 -4.21253,3.520261 -0.25064,0.02587 -0.50452,1.37e-4 -0.77743,-0.07871 -0.39427,-0.113947 -0.45815,-0.169782 -2.35673,-2.059818 l -1.95148,-1.942696 -2.69944,3.12321 c -1.4847,1.717767 -2.71076,3.151953 -2.7246,3.187081 -0.0138,0.03513 1.15958,1.253346 2.6076,2.707149 2.48247,2.492409 2.64135,2.666699 2.78349,3.053569 0.20478,0.55735 0.24605,1.18683 0.11659,1.77838 -0.3168,1.44762 -2.92155,12.99498 -2.98154,13.21778 -0.0962,0.35721 -0.43744,0.85816 -0.757,1.11126 -0.62035,0.49132 -1.48248,0.65816 -2.18856,0.42353 z m 7.42096,-34.46058 c -1.20972,-0.181234 -2.25585,-0.904753 -2.7969,-1.934368 -0.70844,-1.348163 -0.55135,-2.889441 0.41697,-4.091133 0.28112,-0.348859 0.94762,-0.828021 1.43587,-1.032274 1.5755,-0.659085 3.49335,-0.05675 4.45842,1.400239 0.73822,1.114502 0.7775,2.689062 0.0961,3.851789 -0.42855,0.731253 -1.25967,1.399567 -2.04041,1.640714 -0.44137,0.136324 -1.21728,0.217883 -1.57005,0.165033 z"
         style="fill:#ffffff;stroke-width:0.06839593" />
      <path
         sodipodi:nodetypes="cccc"
         inkscape:connector-curvature="0"
         id="rect904"
         d="m 234.54804,52.649021 v 0.781827 l -15.69668,-0.390914 z"
         style="fill:#ffffff;fill-opacity:1;stroke:none;stroke-width:2.64583325;stroke-linecap:round;stroke-linejoin:round;stroke-miterlimit:4;stroke-dasharray:none;stroke-opacity:1" />
      <path
         style="fill:#ffffff;fill-opacity:1;stroke:none;stroke-width:2.64583325;stroke-linecap:round;stroke-linejoin:round;stroke-miterlimit:4;stroke-dasharray:none;stroke-opacity:1"
         d="m 232.43136,54.765689 v 0.781827 l -15.69668,-0.390914 z"
         id="path907"
         inkscape:connector-curvature="0"
         sodipodi:nodetypes="cccc" />
      <path
         sodipodi:nodetypes="cccc"
         inkscape:connector-curvature="0"
         id="path909"
         d="m 230.31468,56.882357 v 0.781827 L 214.618,57.27327 Z"
         style="fill:#ffffff;fill-opacity:1;stroke:none;stroke-width:2.64583325;stroke-linecap:round;stroke-linejoin:round;stroke-miterlimit:4;stroke-dasharray:none;stroke-opacity:1" />
      <path
         style="fill:#ffffff;fill-opacity:1;stroke:none;stroke-width:2.64583325;stroke-linecap:round;stroke-linejoin:round;stroke-miterlimit:4;stroke-dasharray:none;stroke-opacity:1"
         d="m 228.72717,58.999025 v 0.781827 l -15.69668,-0.390914 z"
         id="path911"
         inkscape:connector-curvature="0"
         sodipodi:nodetypes="cccc" />
      <path
         sodipodi:nodetypes="cccc"
         inkscape:connector-curvature="0"
         id="path914"
         d="M 227.66883,61.115693 V 61.89752 L 211.97215,61.506606 Z"
         style="fill:#ffffff;fill-opacity:1;stroke:none;stroke-width:2.64583325;stroke-linecap:round;stroke-linejoin:round;stroke-miterlimit:4;stroke-dasharray:none;stroke-opacity:1" />
      <path
         style="fill:#ffffff;fill-opacity:1;stroke:none;stroke-width:2.64583325;stroke-linecap:round;stroke-linejoin:round;stroke-miterlimit:4;stroke-dasharray:none;stroke-opacity:1"
         d="m 228.72717,67.994864 v 0.781827 l -15.69668,-0.390914 z"
         id="path916"
         inkscape:connector-curvature="0"
         sodipodi:nodetypes="cccc" />
      <path
         sodipodi:nodetypes="cccc"
         inkscape:connector-curvature="0"
         id="path918"
         d="m 217.08543,70.111532 v 0.781827 l -15.69668,-0.390914 z"
         style="fill:#ffffff;fill-opacity:1;stroke:none;stroke-width:2.64583325;stroke-linecap:round;stroke-linejoin:round;stroke-miterlimit:4;stroke-dasharray:none;stroke-opacity:1" />
      <path
         style="fill:#ffffff;fill-opacity:1;stroke:none;stroke-width:2.64583325;stroke-linecap:round;stroke-linejoin:round;stroke-miterlimit:4;stroke-dasharray:none;stroke-opacity:1"
         d="m 216.02709,72.757367 v 0.781827 L 200.33041,73.14828 Z"
         id="path920"
         inkscape:connector-curvature="0"
         sodipodi:nodetypes="cccc" />
      <path
         sodipodi:nodetypes="cccc"
         inkscape:connector-curvature="0"
         id="path922"
         d="m 217.08543,75.403202 v 0.781827 l -15.69668,-0.390914 z"
         style="fill:#ffffff;fill-opacity:1;stroke:none;stroke-width:2.64583325;stroke-linecap:round;stroke-linejoin:round;stroke-miterlimit:4;stroke-dasharray:none;stroke-opacity:1" />
      <path
         sodipodi:nodetypes="cccc"
         inkscape:connector-curvature="0"
         id="rect904-7"
         d="m 238.24072,126.73522 v 0.6547 l 13.14426,-0.32736 z"
         style="fill:#ffffff;fill-opacity:1;stroke:none;stroke-width:2.21559978;stroke-linecap:round;stroke-linejoin:round;stroke-miterlimit:4;stroke-dasharray:none;stroke-opacity:1" />
      <path
         style="fill:#ffffff;fill-opacity:1;stroke:none;stroke-width:2.21559978;stroke-linecap:round;stroke-linejoin:round;stroke-miterlimit:4;stroke-dasharray:none;stroke-opacity:1"
         d="m 240.0132,128.5077 v 0.6547 l 13.14428,-0.32735 z"
         id="path907-5"
         inkscape:connector-curvature="0"
         sodipodi:nodetypes="cccc" />
      <path
         sodipodi:nodetypes="cccc"
         inkscape:connector-curvature="0"
         id="path909-9"
         d="m 241.78569,130.28018 v 0.6547 l 13.14428,-0.32735 z"
         style="fill:#ffffff;fill-opacity:1;stroke:none;stroke-width:2.21559978;stroke-linecap:round;stroke-linejoin:round;stroke-miterlimit:4;stroke-dasharray:none;stroke-opacity:1" />
      <path
         style="fill:#ffffff;fill-opacity:1;stroke:none;stroke-width:2.21559978;stroke-linecap:round;stroke-linejoin:round;stroke-miterlimit:4;stroke-dasharray:none;stroke-opacity:1"
         d="m 243.11507,132.05267 v 0.65469 l 13.14426,-0.32735 z"
         id="path911-6"
         inkscape:connector-curvature="0"
         sodipodi:nodetypes="cccc" />
      <path
         sodipodi:nodetypes="cccc"
         inkscape:connector-curvature="0"
         id="path914-2"
         d="m 243.19553,133.82514 v 0.6547 l 13.14428,-0.32734 z"
         style="fill:#ffffff;fill-opacity:1;stroke:none;stroke-width:2.21559978;stroke-linecap:round;stroke-linejoin:round;stroke-miterlimit:4;stroke-dasharray:none;stroke-opacity:1" />
      <path
         style="fill:#ffffff;fill-opacity:1;stroke:none;stroke-width:2.21559978;stroke-linecap:round;stroke-linejoin:round;stroke-miterlimit:4;stroke-dasharray:none;stroke-opacity:1"
         d="m 230.70765,112.11225 v 0.65469 l 13.14427,-0.32735 z"
         id="path916-1"
         inkscape:connector-curvature="0"
         sodipodi:nodetypes="cccc" />
      <path
         sodipodi:nodetypes="cccc"
         inkscape:connector-curvature="0"
         id="path918-7"
         d="m 240.4564,118.75908 v 0.65469 l 13.14428,-0.32734 z"
         style="fill:#ffffff;fill-opacity:1;stroke:none;stroke-width:2.21559978;stroke-linecap:round;stroke-linejoin:round;stroke-miterlimit:4;stroke-dasharray:none;stroke-opacity:1" />
      <path
         sodipodi:nodetypes="cccc"
         inkscape:connector-curvature="0"
         id="path922-8"
         d="m 241.34264,120.97466 v 0.65471 l 13.14428,-0.32736 z"
         style="fill:#ffffff;fill-opacity:1;stroke:none;stroke-width:2.21559978;stroke-linecap:round;stroke-linejoin:round;stroke-miterlimit:4;stroke-dasharray:none;stroke-opacity:1" />
      <path
         style="fill:none;stroke:#fff8f8;stroke-width:3.34956837;stroke-linecap:round;stroke-linejoin:miter;stroke-miterlimit:4;stroke-dasharray:none;stroke-opacity:1"
         d="m 226.61175,112.10036 v 7.55418 l 5.23756,5.23757 3.52528,3.52528 4.78432,4.78431 v 6.09371"
         id="path867"
         inkscape:connector-curvature="0" />
      <path
         style="color:#000000;font-style:normal;font-variant:normal;font-weight:normal;font-stretch:normal;font-size:medium;line-height:normal;font-family:sans-serif;font-variant-ligatures:normal;font-variant-position:normal;font-variant-caps:normal;font-variant-numeric:normal;font-variant-alternates:normal;font-feature-settings:normal;text-indent:0;text-align:start;text-decoration:none;text-decoration-line:none;text-decoration-style:solid;text-decoration-color:#000000;letter-spacing:normal;word-spacing:normal;text-transform:none;writing-mode:lr-tb;direction:ltr;text-orientation:mixed;dominant-baseline:auto;baseline-shift:baseline;text-anchor:start;white-space:normal;shape-padding:0;clip-rule:nonzero;display:inline;overflow:visible;visibility:visible;opacity:1;isolation:auto;mix-blend-mode:normal;color-interpolation:sRGB;color-interpolation-filters:linearRGB;solid-color:#000000;solid-opacity:1;vector-effect:none;fill:#ffffff;fill-opacity:1;fill-rule:nonzero;stroke:none;stroke-width:8.37392044;stroke-linecap:butt;stroke-linejoin:miter;stroke-miterlimit:4;stroke-dasharray:none;stroke-dashoffset:0;stroke-opacity:1;color-rendering:auto;image-rendering:auto;shape-rendering:auto;text-rendering:auto;enable-background:accumulate"
         d="m 229.44999,124.61412 -6.49627,9.3682 4.52691,4.24448 8.379,-8.22197 z"
         id="path2327"
         inkscape:connector-curvature="0"
         sodipodi:nodetypes="ccccc" />
      <path
         style="fill:none;stroke:#fffefe;stroke-width:3.34956837;stroke-linecap:round;stroke-linejoin:miter;stroke-miterlimit:4;stroke-dasharray:none;stroke-opacity:1"
         d="m 225.64476,135.72989 -7.70527,-7.70526 -7.45346,7.45346"
         id="path2329"
         inkscape:connector-curvature="0" />
      <path
         style="color:#000000;font-style:normal;font-variant:normal;font-weight:normal;font-stretch:normal;font-size:medium;line-height:normal;font-family:sans-serif;font-variant-ligatures:normal;font-variant-position:normal;font-variant-caps:normal;font-variant-numeric:normal;font-variant-alternates:normal;font-feature-settings:normal;text-indent:0;text-align:start;text-decoration:none;text-decoration-line:none;text-decoration-style:solid;text-decoration-color:#000000;letter-spacing:normal;word-spacing:normal;text-transform:none;writing-mode:lr-tb;direction:ltr;text-orientation:mixed;dominant-baseline:auto;baseline-shift:baseline;text-anchor:start;white-space:normal;shape-padding:0;clip-rule:nonzero;display:inline;overflow:visible;visibility:visible;opacity:1;isolation:auto;mix-blend-mode:normal;color-interpolation:sRGB;color-interpolation-filters:linearRGB;solid-color:#000000;solid-opacity:1;vector-effect:none;fill:#fff7f7;fill-opacity:1;fill-rule:nonzero;stroke:none;stroke-width:3.34956837;stroke-linecap:round;stroke-linejoin:miter;stroke-miterlimit:4;stroke-dasharray:none;stroke-dashoffset:0;stroke-opacity:1;color-rendering:auto;image-rendering:auto;shape-rendering:auto;text-rendering:auto;enable-background:accumulate"
         d="m 226.16091,135.14422 -9.48933,4.5266 -3.18438,10.43633 c -0.65259,2.13629 2.55142,3.11434 3.20401,0.97805 l 2.7297,-8.94799 8.05661,-3.91328 c -0.94611,-2.19885 -0.29417,-1.24314 -1.31661,-3.07971 z"
         id="path2331"
         inkscape:connector-curvature="0"
         sodipodi:nodetypes="ccccccc" />
      <circle
         style="fill:#ffffff;fill-opacity:1;stroke:#fffbfb;stroke-width:3.34956837;stroke-linecap:round;stroke-linejoin:round;stroke-miterlimit:4;stroke-dasharray:none;stroke-dashoffset:0;stroke-opacity:1"
         id="path3638"
         cx="236.98578"
         cy="122.10552"
         r="1.5668727" />
      <path
         style="fill:#ffffff;fill-opacity:1;stroke:none;stroke-width:3.65183282;stroke-linecap:round;stroke-linejoin:round;stroke-miterlimit:4;stroke-dasharray:none;stroke-dashoffset:0;stroke-opacity:1"
         d="m 226.64782,139.30478 h 11.43961 c 0.12284,2.82942 4.00439,2.94488 4.17535,0 h 5.86305 v 12.89246 H 221.1363 v -10.17238 z"
         id="rect3640"
         inkscape:connector-curvature="0"
         sodipodi:nodetypes="cccccccc" />
    </g>
    <flowRoot
       xml:space="preserve"
       id="flowRoot868"
       style="fill:black;fill-opacity:1;stroke:#ffffff;font-family:'Ikaros Sans';font-style:normal;font-weight:normal;font-size:42.66666667px;line-height:1.25;letter-spacing:0px;word-spacing:0px;-inkscape-font-specification:'Ikaros Sans';font-stretch:normal;font-variant:normal;stroke-opacity:1;"><flowRegion
         id="flowRegion870"
         style="stroke:#ffffff;stroke-opacity:1;"><rect
           id="rect872"
           width="0"
           height="80"
           x="60"
           y="844"
           style="stroke:#ffffff;stroke-opacity:1;" /></flowRegion><flowPara
         id="flowPara874"></flowPara></flowRoot>    <g
       id="g912"
       transform="translate(-1.0752567,-66.486652)">
      <g
         transform="translate(15.345833)"
         id="g885">
        <path
           style="fill:none;stroke:#ffffff;stroke-width:5.27680206;stroke-linecap:round;stroke-linejoin:miter;stroke-miterlimit:4;stroke-dasharray:none;stroke-opacity:1"
           d="m 6.1328023,255.89909 v 14.0755"
           id="path876"
           inkscape:connector-curvature="0"
           sodipodi:nodetypes="cc" />
        <path
           sodipodi:nodetypes="cc"
           inkscape:connector-curvature="0"
           id="path878"
           d="m 0.20859057,257.34272 v 11.18822"
           style="fill:none;stroke:#ffffff;stroke-width:5.27680206;stroke-linecap:round;stroke-linejoin:miter;stroke-miterlimit:4;stroke-dasharray:none;stroke-opacity:1" />
        <path
           style="fill:none;stroke:#ffffff;stroke-width:5.27680206;stroke-linecap:round;stroke-linejoin:miter;stroke-miterlimit:4;stroke-dasharray:none;stroke-opacity:1"
           d="m -5.7156215,260.30219 v 5.26929"
           id="path880"
           inkscape:connector-curvature="0"
           sodipodi:nodetypes="cc" />
      </g>
      <g
         transform="rotate(-180,26.40234,262.93684)"
         id="g893">
        <path
           sodipodi:nodetypes="cc"
           inkscape:connector-curvature="0"
           id="path887"
           d="m 6.1328023,255.89909 v 14.0755"
           style="fill:none;stroke:#ffffff;stroke-width:5.27680206;stroke-linecap:round;stroke-linejoin:miter;stroke-miterlimit:4;stroke-dasharray:none;stroke-opacity:1" />
        <path
           style="fill:none;stroke:#ffffff;stroke-width:5.27680206;stroke-linecap:round;stroke-linejoin:miter;stroke-miterlimit:4;stroke-dasharray:none;stroke-opacity:1"
           d="m 0.20859057,257.34272 v 11.18822"
           id="path889"
           inkscape:connector-curvature="0"
           sodipodi:nodetypes="cc" />
        <path
           sodipodi:nodetypes="cc"
           inkscape:connector-curvature="0"
           id="path891"
           d="m -5.7156215,260.30219 v 5.26929"
           style="fill:none;stroke:#ffffff;stroke-width:5.27680206;stroke-linecap:round;stroke-linejoin:miter;stroke-miterlimit:4;stroke-dasharray:none;stroke-opacity:1" />
      </g>
      <path
         inkscape:connector-curvature="0"
         id="path895"
         d="m 22.612837,262.84015 c 22.492557,0 22.492557,0 22.492557,0"
         style="fill:none;stroke:url(#linearGradient901);stroke-width:5;stroke-linecap:butt;stroke-linejoin:miter;stroke-miterlimit:4;stroke-dasharray:none;stroke-opacity:1" />
    </g>
  </g>
</svg>
